<mxfile host="Electron" modified="2024-03-11T00:41:51.389Z" agent="Mozilla/5.0 (X11; Linux x86_64) AppleWebKit/537.36 (KHTML, like Gecko) draw.io/24.0.4 Chrome/120.0.6099.109 Electron/28.1.0 Safari/537.36" etag="Fde6b-o70XfLXBC1WWMr" version="24.0.4" type="device" pages="2">
  <diagram name="v0.5.0" id="XjHTU6mofsc15Qh1roGd">
    <mxGraphModel dx="1050" dy="633" grid="1" gridSize="10" guides="1" tooltips="1" connect="1" arrows="1" fold="1" page="1" pageScale="1" pageWidth="850" pageHeight="1100" math="0" shadow="0">
      <root>
        <mxCell id="0" />
        <mxCell id="1" parent="0" />
        <mxCell id="KvoUGaDT58BbhrPoAscn-27" value="" style="rounded=0;whiteSpace=wrap;html=1;fillColor=#f8cecc;strokeColor=#b85450;" parent="1" vertex="1">
          <mxGeometry x="120" y="40" width="1200" height="880" as="geometry" />
        </mxCell>
        <mxCell id="KvoUGaDT58BbhrPoAscn-22" value="" style="rounded=0;whiteSpace=wrap;html=1;" parent="1" vertex="1">
          <mxGeometry x="277" y="160" width="973" height="720" as="geometry" />
        </mxCell>
        <mxCell id="BBbgDl7xEyTMO4sRADf5-1" value="" style="rounded=0;whiteSpace=wrap;html=1;fillColor=#f5f5f5;fontColor=#333333;strokeColor=#666666;" parent="1" vertex="1">
          <mxGeometry x="317" y="200" width="893" height="320" as="geometry" />
        </mxCell>
        <mxCell id="BBbgDl7xEyTMO4sRADf5-2" value="" style="rounded=0;whiteSpace=wrap;html=1;" parent="1" vertex="1">
          <mxGeometry x="317" y="520" width="893" height="320" as="geometry" />
        </mxCell>
        <mxCell id="KvoUGaDT58BbhrPoAscn-1" value="&lt;font style=&quot;font-size: 24px;&quot;&gt;PS&lt;/font&gt;" style="text;html=1;strokeColor=none;fillColor=none;align=center;verticalAlign=middle;whiteSpace=wrap;rounded=0;" parent="1" vertex="1">
          <mxGeometry x="317" y="204" width="60" height="30" as="geometry" />
        </mxCell>
        <mxCell id="KvoUGaDT58BbhrPoAscn-2" value="&lt;font style=&quot;font-size: 24px;&quot;&gt;PL&lt;/font&gt;" style="text;html=1;strokeColor=none;fillColor=none;align=center;verticalAlign=middle;whiteSpace=wrap;rounded=0;" parent="1" vertex="1">
          <mxGeometry x="317" y="524" width="60" height="30" as="geometry" />
        </mxCell>
        <mxCell id="KvoUGaDT58BbhrPoAscn-3" value="512 MiB DDR3" style="rounded=0;whiteSpace=wrap;html=1;" parent="1" vertex="1">
          <mxGeometry x="850" y="80" width="120" height="40" as="geometry" />
        </mxCell>
        <mxCell id="KvoUGaDT58BbhrPoAscn-7" value="DDR3 PHY" style="rounded=0;whiteSpace=wrap;html=1;" parent="1" vertex="1">
          <mxGeometry x="850" y="200" width="120" height="30" as="geometry" />
        </mxCell>
        <mxCell id="KvoUGaDT58BbhrPoAscn-8" value="DDR3 Controller" style="rounded=0;whiteSpace=wrap;html=1;" parent="1" vertex="1">
          <mxGeometry x="850" y="230" width="120" height="30" as="geometry" />
        </mxCell>
        <mxCell id="KvoUGaDT58BbhrPoAscn-54" value="" style="rounded=0;whiteSpace=wrap;html=1;fillColor=#d5e8d4;strokeColor=#82b366;" parent="1" vertex="1">
          <mxGeometry x="518" y="204" width="322" height="236" as="geometry" />
        </mxCell>
        <mxCell id="KvoUGaDT58BbhrPoAscn-38" style="edgeStyle=orthogonalEdgeStyle;rounded=0;orthogonalLoop=1;jettySize=auto;html=1;exitX=0.5;exitY=0;exitDx=0;exitDy=0;entryX=0.5;entryY=1;entryDx=0;entryDy=0;startArrow=classicThin;startFill=1;" parent="1" source="KvoUGaDT58BbhrPoAscn-9" target="KvoUGaDT58BbhrPoAscn-36" edge="1">
          <mxGeometry relative="1" as="geometry" />
        </mxCell>
        <mxCell id="v0913r71u1T3ladlf1mR-80" style="edgeStyle=orthogonalEdgeStyle;rounded=0;orthogonalLoop=1;jettySize=auto;html=1;exitX=1;exitY=0.25;exitDx=0;exitDy=0;strokeColor=#969696;startArrow=classic;startFill=1;" parent="1" edge="1">
          <mxGeometry relative="1" as="geometry">
            <mxPoint x="647" y="376.25" as="sourcePoint" />
            <mxPoint x="860" y="260" as="targetPoint" />
            <Array as="points">
              <mxPoint x="690" y="376.75" />
              <mxPoint x="690" y="313.75" />
              <mxPoint x="860" y="313.75" />
            </Array>
          </mxGeometry>
        </mxCell>
        <mxCell id="KvoUGaDT58BbhrPoAscn-9" value="Central AXI Interconnect (Slow)" style="rounded=0;whiteSpace=wrap;html=1;" parent="1" vertex="1">
          <mxGeometry x="417" y="340" width="230" height="130" as="geometry" />
        </mxCell>
        <mxCell id="KvoUGaDT58BbhrPoAscn-10" value="" style="sketch=0;aspect=fixed;pointerEvents=1;shadow=0;dashed=0;html=1;strokeColor=none;labelPosition=center;verticalLabelPosition=bottom;verticalAlign=top;align=center;fillColor=#00188D;shape=mxgraph.azure.computer" parent="1" vertex="1">
          <mxGeometry x="40" y="277.5" width="50" height="45" as="geometry" />
        </mxCell>
        <mxCell id="KvoUGaDT58BbhrPoAscn-16" style="edgeStyle=orthogonalEdgeStyle;rounded=0;orthogonalLoop=1;jettySize=auto;html=1;exitX=1;exitY=0.5;exitDx=0;exitDy=0;entryX=0.25;entryY=0;entryDx=0;entryDy=0;startArrow=classic;startFill=1;" parent="1" source="KvoUGaDT58BbhrPoAscn-11" target="KvoUGaDT58BbhrPoAscn-9" edge="1">
          <mxGeometry relative="1" as="geometry" />
        </mxCell>
        <mxCell id="KvoUGaDT58BbhrPoAscn-34" style="edgeStyle=orthogonalEdgeStyle;rounded=0;orthogonalLoop=1;jettySize=auto;html=1;exitX=0;exitY=0.5;exitDx=0;exitDy=0;entryX=1;entryY=0.25;entryDx=0;entryDy=0;startArrow=classic;startFill=1;" parent="1" source="KvoUGaDT58BbhrPoAscn-11" target="KvoUGaDT58BbhrPoAscn-29" edge="1">
          <mxGeometry relative="1" as="geometry" />
        </mxCell>
        <mxCell id="KvoUGaDT58BbhrPoAscn-11" value="UART 0" style="rounded=0;whiteSpace=wrap;html=1;" parent="1" vertex="1">
          <mxGeometry x="337" y="260" width="50" height="40" as="geometry" />
        </mxCell>
        <mxCell id="KvoUGaDT58BbhrPoAscn-33" style="edgeStyle=orthogonalEdgeStyle;rounded=0;orthogonalLoop=1;jettySize=auto;html=1;exitX=0;exitY=0.5;exitDx=0;exitDy=0;entryX=1;entryY=0.75;entryDx=0;entryDy=0;startArrow=classic;startFill=1;" parent="1" source="KvoUGaDT58BbhrPoAscn-14" target="KvoUGaDT58BbhrPoAscn-29" edge="1">
          <mxGeometry relative="1" as="geometry" />
        </mxCell>
        <mxCell id="KvoUGaDT58BbhrPoAscn-14" value="UART 1" style="rounded=0;whiteSpace=wrap;html=1;" parent="1" vertex="1">
          <mxGeometry x="337" y="300" width="50" height="40" as="geometry" />
        </mxCell>
        <mxCell id="KvoUGaDT58BbhrPoAscn-15" style="edgeStyle=orthogonalEdgeStyle;rounded=0;orthogonalLoop=1;jettySize=auto;html=1;exitX=1;exitY=0.5;exitDx=0;exitDy=0;entryX=0.122;entryY=0.013;entryDx=0;entryDy=0;entryPerimeter=0;startArrow=classic;startFill=1;" parent="1" source="KvoUGaDT58BbhrPoAscn-14" target="KvoUGaDT58BbhrPoAscn-9" edge="1">
          <mxGeometry relative="1" as="geometry">
            <Array as="points">
              <mxPoint x="445" y="320" />
            </Array>
          </mxGeometry>
        </mxCell>
        <mxCell id="KvoUGaDT58BbhrPoAscn-32" style="edgeStyle=orthogonalEdgeStyle;rounded=0;orthogonalLoop=1;jettySize=auto;html=1;exitX=0;exitY=0.5;exitDx=0;exitDy=0;startArrow=classic;startFill=1;" parent="1" source="KvoUGaDT58BbhrPoAscn-17" target="KvoUGaDT58BbhrPoAscn-20" edge="1">
          <mxGeometry relative="1" as="geometry" />
        </mxCell>
        <mxCell id="KvoUGaDT58BbhrPoAscn-17" value="SDIO" style="rounded=0;whiteSpace=wrap;html=1;" parent="1" vertex="1">
          <mxGeometry x="337" y="340" width="50" height="40" as="geometry" />
        </mxCell>
        <mxCell id="KvoUGaDT58BbhrPoAscn-20" value="microSD&lt;br&gt;Card" style="pointerEvents=1;shadow=0;dashed=0;html=1;strokeColor=none;fillColor=#4495D1;labelPosition=center;verticalLabelPosition=bottom;verticalAlign=top;align=center;outlineConnect=0;shape=mxgraph.veeam.sd_card;" parent="1" vertex="1">
          <mxGeometry x="178.8" y="400" width="32.4" height="38.8" as="geometry" />
        </mxCell>
        <mxCell id="KvoUGaDT58BbhrPoAscn-24" style="edgeStyle=orthogonalEdgeStyle;rounded=0;orthogonalLoop=1;jettySize=auto;html=1;exitX=0.5;exitY=1;exitDx=0;exitDy=0;entryX=0.5;entryY=0;entryDx=0;entryDy=0;startArrow=classic;startFill=1;" parent="1" source="KvoUGaDT58BbhrPoAscn-3" target="KvoUGaDT58BbhrPoAscn-7" edge="1">
          <mxGeometry relative="1" as="geometry" />
        </mxCell>
        <mxCell id="KvoUGaDT58BbhrPoAscn-25" value="16 Bit DDR3 Link" style="edgeLabel;html=1;align=center;verticalAlign=middle;resizable=0;points=[];labelBackgroundColor=none;" parent="KvoUGaDT58BbhrPoAscn-24" vertex="1" connectable="0">
          <mxGeometry x="0.0781" y="1" relative="1" as="geometry">
            <mxPoint x="49" y="-24" as="offset" />
          </mxGeometry>
        </mxCell>
        <mxCell id="KvoUGaDT58BbhrPoAscn-26" value="&lt;font style=&quot;font-size: 24px;&quot;&gt;Zync 7000 FPGA&lt;/font&gt;" style="text;html=1;strokeColor=none;fillColor=none;align=center;verticalAlign=middle;whiteSpace=wrap;rounded=0;" parent="1" vertex="1">
          <mxGeometry x="287" y="170" width="190" height="30" as="geometry" />
        </mxCell>
        <mxCell id="KvoUGaDT58BbhrPoAscn-28" value="&lt;font style=&quot;font-size: 24px;&quot;&gt;Cora Z7 Board&lt;/font&gt;" style="text;html=1;strokeColor=none;fillColor=none;align=center;verticalAlign=middle;whiteSpace=wrap;rounded=0;" parent="1" vertex="1">
          <mxGeometry x="124" y="45" width="170" height="30" as="geometry" />
        </mxCell>
        <mxCell id="KvoUGaDT58BbhrPoAscn-29" value="USB UART&lt;br&gt;Converter" style="rounded=0;whiteSpace=wrap;html=1;" parent="1" vertex="1">
          <mxGeometry x="140" y="260" width="110" height="80" as="geometry" />
        </mxCell>
        <mxCell id="KvoUGaDT58BbhrPoAscn-31" value="Other&lt;br&gt;IO" style="rounded=0;whiteSpace=wrap;html=1;" parent="1" vertex="1">
          <mxGeometry x="337" y="380" width="50" height="120" as="geometry" />
        </mxCell>
        <mxCell id="KvoUGaDT58BbhrPoAscn-35" style="edgeStyle=orthogonalEdgeStyle;rounded=0;orthogonalLoop=1;jettySize=auto;html=1;exitX=0;exitY=0.5;exitDx=0;exitDy=0;entryX=1;entryY=0.5;entryDx=0;entryDy=0;entryPerimeter=0;startArrow=classic;startFill=1;" parent="1" source="KvoUGaDT58BbhrPoAscn-29" target="KvoUGaDT58BbhrPoAscn-10" edge="1">
          <mxGeometry relative="1" as="geometry" />
        </mxCell>
        <mxCell id="KvoUGaDT58BbhrPoAscn-39" style="edgeStyle=orthogonalEdgeStyle;rounded=0;orthogonalLoop=1;jettySize=auto;html=1;exitX=1;exitY=0.5;exitDx=0;exitDy=0;entryX=0;entryY=0.5;entryDx=0;entryDy=0;startArrow=classic;startFill=1;" parent="1" source="KvoUGaDT58BbhrPoAscn-36" target="KvoUGaDT58BbhrPoAscn-37" edge="1">
          <mxGeometry relative="1" as="geometry" />
        </mxCell>
        <mxCell id="KvoUGaDT58BbhrPoAscn-36" value="Cortex A9&lt;br&gt;@667 MHz" style="rounded=0;whiteSpace=wrap;html=1;" parent="1" vertex="1">
          <mxGeometry x="536" y="220" width="80" height="80" as="geometry" />
        </mxCell>
        <mxCell id="KvoUGaDT58BbhrPoAscn-46" style="edgeStyle=orthogonalEdgeStyle;rounded=0;orthogonalLoop=1;jettySize=auto;html=1;exitX=1;exitY=0.5;exitDx=0;exitDy=0;entryX=0;entryY=0.5;entryDx=0;entryDy=0;startArrow=classic;startFill=1;" parent="1" source="KvoUGaDT58BbhrPoAscn-37" target="KvoUGaDT58BbhrPoAscn-45" edge="1">
          <mxGeometry relative="1" as="geometry" />
        </mxCell>
        <mxCell id="KvoUGaDT58BbhrPoAscn-58" style="edgeStyle=orthogonalEdgeStyle;rounded=0;orthogonalLoop=1;jettySize=auto;html=1;exitX=0.75;exitY=1;exitDx=0;exitDy=0;startArrow=classic;startFill=1;" parent="1" source="KvoUGaDT58BbhrPoAscn-37" target="KvoUGaDT58BbhrPoAscn-41" edge="1">
          <mxGeometry relative="1" as="geometry" />
        </mxCell>
        <mxCell id="KvoUGaDT58BbhrPoAscn-37" value="Cache Coherency / Snoop&lt;br&gt;Logic" style="rounded=0;whiteSpace=wrap;html=1;" parent="1" vertex="1">
          <mxGeometry x="638" y="220" width="80" height="80" as="geometry" />
        </mxCell>
        <mxCell id="KvoUGaDT58BbhrPoAscn-41" value="OCM&lt;br&gt;(256 KiB SRAM)" style="rounded=0;whiteSpace=wrap;html=1;" parent="1" vertex="1">
          <mxGeometry x="698" y="340" width="80" height="80" as="geometry" />
        </mxCell>
        <mxCell id="KvoUGaDT58BbhrPoAscn-43" style="edgeStyle=orthogonalEdgeStyle;rounded=0;orthogonalLoop=1;jettySize=auto;html=1;exitX=1;exitY=0.5;exitDx=0;exitDy=0;entryX=0;entryY=0.152;entryDx=0;entryDy=0;entryPerimeter=0;startArrow=classic;startFill=1;" parent="1" source="KvoUGaDT58BbhrPoAscn-17" target="KvoUGaDT58BbhrPoAscn-9" edge="1">
          <mxGeometry relative="1" as="geometry" />
        </mxCell>
        <mxCell id="KvoUGaDT58BbhrPoAscn-44" style="edgeStyle=orthogonalEdgeStyle;rounded=0;orthogonalLoop=1;jettySize=auto;html=1;exitX=1;exitY=0.5;exitDx=0;exitDy=0;entryX=0.001;entryY=0.775;entryDx=0;entryDy=0;entryPerimeter=0;startArrow=classic;startFill=1;" parent="1" source="KvoUGaDT58BbhrPoAscn-31" target="KvoUGaDT58BbhrPoAscn-9" edge="1">
          <mxGeometry relative="1" as="geometry" />
        </mxCell>
        <mxCell id="KvoUGaDT58BbhrPoAscn-45" value="L2$" style="rounded=0;whiteSpace=wrap;html=1;" parent="1" vertex="1">
          <mxGeometry x="740" y="220" width="80" height="80" as="geometry" />
        </mxCell>
        <mxCell id="KvoUGaDT58BbhrPoAscn-48" value="High Speed AXI Interconnect" style="rounded=0;whiteSpace=wrap;html=1;" parent="1" vertex="1">
          <mxGeometry x="800" y="340" width="250" height="130" as="geometry" />
        </mxCell>
        <mxCell id="KvoUGaDT58BbhrPoAscn-52" style="edgeStyle=orthogonalEdgeStyle;rounded=0;orthogonalLoop=1;jettySize=auto;html=1;entryX=0.404;entryY=0.999;entryDx=0;entryDy=0;entryPerimeter=0;startArrow=classic;startFill=1;" parent="1" edge="1">
          <mxGeometry relative="1" as="geometry">
            <Array as="points">
              <mxPoint x="678" y="520" />
              <mxPoint x="678" y="520" />
            </Array>
            <mxPoint x="678" y="300" as="sourcePoint" />
            <mxPoint x="677.7720000000002" y="520.6800000000001" as="targetPoint" />
          </mxGeometry>
        </mxCell>
        <mxCell id="KvoUGaDT58BbhrPoAscn-64" value="64-bit Cache-Coherent&lt;br&gt;AXI ACP Port" style="edgeLabel;html=1;align=center;verticalAlign=middle;resizable=0;points=[];labelBackgroundColor=none;" parent="KvoUGaDT58BbhrPoAscn-52" vertex="1" connectable="0">
          <mxGeometry x="0.5338" y="-4" relative="1" as="geometry">
            <mxPoint x="64" y="21" as="offset" />
          </mxGeometry>
        </mxCell>
        <mxCell id="KvoUGaDT58BbhrPoAscn-55" value="&lt;font style=&quot;font-size: 24px;&quot;&gt;APU&lt;/font&gt;" style="text;html=1;strokeColor=none;fillColor=none;align=center;verticalAlign=middle;whiteSpace=wrap;rounded=0;" parent="1" vertex="1">
          <mxGeometry x="587" y="305" width="60" height="30" as="geometry" />
        </mxCell>
        <mxCell id="KvoUGaDT58BbhrPoAscn-47" style="edgeStyle=orthogonalEdgeStyle;rounded=0;orthogonalLoop=1;jettySize=auto;html=1;exitX=0.25;exitY=1;exitDx=0;exitDy=0;entryX=1;entryY=0.75;entryDx=0;entryDy=0;startArrow=classic;startFill=1;" parent="1" source="KvoUGaDT58BbhrPoAscn-8" target="KvoUGaDT58BbhrPoAscn-45" edge="1">
          <mxGeometry relative="1" as="geometry" />
        </mxCell>
        <mxCell id="KvoUGaDT58BbhrPoAscn-57" style="edgeStyle=orthogonalEdgeStyle;rounded=0;orthogonalLoop=1;jettySize=auto;html=1;exitX=0.75;exitY=1;exitDx=0;exitDy=0;entryX=0.56;entryY=0;entryDx=0;entryDy=0;entryPerimeter=0;startArrow=classic;startFill=1;" parent="1" source="KvoUGaDT58BbhrPoAscn-8" target="KvoUGaDT58BbhrPoAscn-48" edge="1">
          <mxGeometry relative="1" as="geometry" />
        </mxCell>
        <mxCell id="KvoUGaDT58BbhrPoAscn-60" style="edgeStyle=orthogonalEdgeStyle;rounded=0;orthogonalLoop=1;jettySize=auto;html=1;exitX=1;exitY=0.5;exitDx=0;exitDy=0;entryX=-0.001;entryY=0.311;entryDx=0;entryDy=0;entryPerimeter=0;startArrow=classic;startFill=1;" parent="1" source="KvoUGaDT58BbhrPoAscn-41" target="KvoUGaDT58BbhrPoAscn-48" edge="1">
          <mxGeometry relative="1" as="geometry" />
        </mxCell>
        <mxCell id="v0913r71u1T3ladlf1mR-35" style="edgeStyle=orthogonalEdgeStyle;rounded=0;orthogonalLoop=1;jettySize=auto;html=1;exitX=0.75;exitY=1;exitDx=0;exitDy=0;entryX=0.5;entryY=0;entryDx=0;entryDy=0;startArrow=classic;startFill=1;" parent="1" source="KvoUGaDT58BbhrPoAscn-62" target="v0913r71u1T3ladlf1mR-32" edge="1">
          <mxGeometry relative="1" as="geometry" />
        </mxCell>
        <mxCell id="KvoUGaDT58BbhrPoAscn-62" value="LETC Matrix (Simple AXI Interconnect)" style="rounded=0;whiteSpace=wrap;html=1;" parent="1" vertex="1">
          <mxGeometry x="387" y="554" width="663" height="46" as="geometry" />
        </mxCell>
        <mxCell id="KvoUGaDT58BbhrPoAscn-65" value="M" style="text;html=1;strokeColor=none;fillColor=none;align=center;verticalAlign=middle;whiteSpace=wrap;rounded=0;" parent="1" vertex="1">
          <mxGeometry x="638" y="494" width="60" height="30" as="geometry" />
        </mxCell>
        <mxCell id="KvoUGaDT58BbhrPoAscn-66" value="S" style="text;html=1;strokeColor=none;fillColor=none;align=center;verticalAlign=middle;whiteSpace=wrap;rounded=0;" parent="1" vertex="1">
          <mxGeometry x="638" y="292.5" width="60" height="30" as="geometry" />
        </mxCell>
        <mxCell id="KvoUGaDT58BbhrPoAscn-67" style="edgeStyle=orthogonalEdgeStyle;rounded=0;orthogonalLoop=1;jettySize=auto;html=1;exitX=0.5;exitY=1;exitDx=0;exitDy=0;startArrow=classic;startFill=1;" parent="1" edge="1">
          <mxGeometry relative="1" as="geometry">
            <mxPoint x="450" y="470" as="sourcePoint" />
            <mxPoint x="450" y="520" as="targetPoint" />
          </mxGeometry>
        </mxCell>
        <mxCell id="KvoUGaDT58BbhrPoAscn-68" style="edgeStyle=orthogonalEdgeStyle;rounded=0;orthogonalLoop=1;jettySize=auto;html=1;exitX=0.5;exitY=1;exitDx=0;exitDy=0;startArrow=classic;startFill=1;" parent="1" edge="1">
          <mxGeometry relative="1" as="geometry">
            <mxPoint x="470" y="470" as="sourcePoint" />
            <mxPoint x="470" y="520" as="targetPoint" />
          </mxGeometry>
        </mxCell>
        <mxCell id="KvoUGaDT58BbhrPoAscn-70" style="edgeStyle=orthogonalEdgeStyle;rounded=0;orthogonalLoop=1;jettySize=auto;html=1;exitX=0.5;exitY=1;exitDx=0;exitDy=0;startArrow=classic;startFill=1;" parent="1" edge="1">
          <mxGeometry relative="1" as="geometry">
            <mxPoint x="590" y="470" as="sourcePoint" />
            <mxPoint x="590" y="520" as="targetPoint" />
          </mxGeometry>
        </mxCell>
        <mxCell id="KvoUGaDT58BbhrPoAscn-71" style="edgeStyle=orthogonalEdgeStyle;rounded=0;orthogonalLoop=1;jettySize=auto;html=1;exitX=0.5;exitY=1;exitDx=0;exitDy=0;startArrow=classic;startFill=1;" parent="1" edge="1">
          <mxGeometry relative="1" as="geometry">
            <mxPoint x="610" y="470" as="sourcePoint" />
            <mxPoint x="610" y="520" as="targetPoint" />
          </mxGeometry>
        </mxCell>
        <mxCell id="KvoUGaDT58BbhrPoAscn-72" value="32-bit GP&lt;br&gt;AXI" style="text;html=1;strokeColor=none;fillColor=none;align=center;verticalAlign=middle;whiteSpace=wrap;rounded=0;" parent="1" vertex="1">
          <mxGeometry x="490" y="480" width="60" height="30" as="geometry" />
        </mxCell>
        <mxCell id="KvoUGaDT58BbhrPoAscn-73" value="M" style="text;html=1;strokeColor=none;fillColor=none;align=center;verticalAlign=middle;whiteSpace=wrap;rounded=0;" parent="1" vertex="1">
          <mxGeometry x="550" y="494" width="60" height="30" as="geometry" />
        </mxCell>
        <mxCell id="KvoUGaDT58BbhrPoAscn-74" value="M" style="text;html=1;strokeColor=none;fillColor=none;align=center;verticalAlign=middle;whiteSpace=wrap;rounded=0;" parent="1" vertex="1">
          <mxGeometry x="570" y="494" width="60" height="30" as="geometry" />
        </mxCell>
        <mxCell id="KvoUGaDT58BbhrPoAscn-75" value="S" style="text;html=1;strokeColor=none;fillColor=none;align=center;verticalAlign=middle;whiteSpace=wrap;rounded=0;" parent="1" vertex="1">
          <mxGeometry x="550" y="464" width="60" height="30" as="geometry" />
        </mxCell>
        <mxCell id="KvoUGaDT58BbhrPoAscn-78" value="M" style="text;html=1;strokeColor=none;fillColor=none;align=center;verticalAlign=middle;whiteSpace=wrap;rounded=0;" parent="1" vertex="1">
          <mxGeometry x="430" y="464" width="60" height="30" as="geometry" />
        </mxCell>
        <mxCell id="KvoUGaDT58BbhrPoAscn-76" value="S" style="text;html=1;strokeColor=none;fillColor=none;align=center;verticalAlign=middle;whiteSpace=wrap;rounded=0;" parent="1" vertex="1">
          <mxGeometry x="570" y="464" width="60" height="30" as="geometry" />
        </mxCell>
        <mxCell id="KvoUGaDT58BbhrPoAscn-77" value="M" style="text;html=1;strokeColor=none;fillColor=none;align=center;verticalAlign=middle;whiteSpace=wrap;rounded=0;" parent="1" vertex="1">
          <mxGeometry x="410" y="464" width="60" height="30" as="geometry" />
        </mxCell>
        <mxCell id="KvoUGaDT58BbhrPoAscn-80" value="S" style="text;html=1;strokeColor=none;fillColor=none;align=center;verticalAlign=middle;whiteSpace=wrap;rounded=0;" parent="1" vertex="1">
          <mxGeometry x="430" y="494" width="60" height="30" as="geometry" />
        </mxCell>
        <mxCell id="KvoUGaDT58BbhrPoAscn-79" value="S" style="text;html=1;strokeColor=none;fillColor=none;align=center;verticalAlign=middle;whiteSpace=wrap;rounded=0;" parent="1" vertex="1">
          <mxGeometry x="410" y="494" width="60" height="30" as="geometry" />
        </mxCell>
        <mxCell id="KvoUGaDT58BbhrPoAscn-82" style="edgeStyle=orthogonalEdgeStyle;rounded=0;orthogonalLoop=1;jettySize=auto;html=1;exitX=0.75;exitY=1;exitDx=0;exitDy=0;entryX=0.56;entryY=0;entryDx=0;entryDy=0;entryPerimeter=0;startArrow=classic;startFill=1;" parent="1" edge="1">
          <mxGeometry relative="1" as="geometry">
            <mxPoint x="909.92" y="260" as="sourcePoint" />
            <mxPoint x="909.92" y="340" as="targetPoint" />
          </mxGeometry>
        </mxCell>
        <mxCell id="KvoUGaDT58BbhrPoAscn-86" style="edgeStyle=orthogonalEdgeStyle;rounded=0;orthogonalLoop=1;jettySize=auto;html=1;exitX=0.75;exitY=1;exitDx=0;exitDy=0;startArrow=classic;startFill=1;" parent="1" edge="1">
          <mxGeometry relative="1" as="geometry">
            <mxPoint x="1010" y="470" as="sourcePoint" />
            <mxPoint x="1010" y="520" as="targetPoint" />
          </mxGeometry>
        </mxCell>
        <mxCell id="KvoUGaDT58BbhrPoAscn-87" style="edgeStyle=orthogonalEdgeStyle;rounded=0;orthogonalLoop=1;jettySize=auto;html=1;exitX=0.75;exitY=1;exitDx=0;exitDy=0;startArrow=classic;startFill=1;" parent="1" edge="1">
          <mxGeometry relative="1" as="geometry">
            <mxPoint x="990" y="470" as="sourcePoint" />
            <mxPoint x="990" y="520" as="targetPoint" />
          </mxGeometry>
        </mxCell>
        <mxCell id="KvoUGaDT58BbhrPoAscn-89" style="edgeStyle=orthogonalEdgeStyle;rounded=0;orthogonalLoop=1;jettySize=auto;html=1;exitX=0.75;exitY=1;exitDx=0;exitDy=0;startArrow=classic;startFill=1;" parent="1" edge="1">
          <mxGeometry relative="1" as="geometry">
            <mxPoint x="860" y="470" as="sourcePoint" />
            <mxPoint x="860" y="520" as="targetPoint" />
          </mxGeometry>
        </mxCell>
        <mxCell id="KvoUGaDT58BbhrPoAscn-90" value="M" style="text;html=1;strokeColor=none;fillColor=none;align=center;verticalAlign=middle;whiteSpace=wrap;rounded=0;" parent="1" vertex="1">
          <mxGeometry x="800" y="494" width="60" height="30" as="geometry" />
        </mxCell>
        <mxCell id="KvoUGaDT58BbhrPoAscn-91" value="M" style="text;html=1;strokeColor=none;fillColor=none;align=center;verticalAlign=middle;whiteSpace=wrap;rounded=0;" parent="1" vertex="1">
          <mxGeometry x="820" y="494" width="60" height="30" as="geometry" />
        </mxCell>
        <mxCell id="KvoUGaDT58BbhrPoAscn-92" value="M" style="text;html=1;strokeColor=none;fillColor=none;align=center;verticalAlign=middle;whiteSpace=wrap;rounded=0;" parent="1" vertex="1">
          <mxGeometry x="950" y="494" width="60" height="30" as="geometry" />
        </mxCell>
        <mxCell id="KvoUGaDT58BbhrPoAscn-93" value="M" style="text;html=1;strokeColor=none;fillColor=none;align=center;verticalAlign=middle;whiteSpace=wrap;rounded=0;" parent="1" vertex="1">
          <mxGeometry x="970" y="494" width="60" height="30" as="geometry" />
        </mxCell>
        <mxCell id="KvoUGaDT58BbhrPoAscn-97" value="S" style="text;html=1;strokeColor=none;fillColor=none;align=center;verticalAlign=middle;whiteSpace=wrap;rounded=0;" parent="1" vertex="1">
          <mxGeometry x="950" y="465" width="60" height="30" as="geometry" />
        </mxCell>
        <mxCell id="KvoUGaDT58BbhrPoAscn-98" value="S" style="text;html=1;strokeColor=none;fillColor=none;align=center;verticalAlign=middle;whiteSpace=wrap;rounded=0;" parent="1" vertex="1">
          <mxGeometry x="970" y="465" width="60" height="30" as="geometry" />
        </mxCell>
        <mxCell id="KvoUGaDT58BbhrPoAscn-99" value="M" style="text;html=1;strokeColor=none;fillColor=none;align=center;verticalAlign=middle;whiteSpace=wrap;rounded=0;" parent="1" vertex="1">
          <mxGeometry x="800" y="250" width="60" height="30" as="geometry" />
        </mxCell>
        <mxCell id="KvoUGaDT58BbhrPoAscn-102" style="edgeStyle=orthogonalEdgeStyle;rounded=0;orthogonalLoop=1;jettySize=auto;html=1;exitX=0.75;exitY=1;exitDx=0;exitDy=0;startArrow=classic;startFill=1;" parent="1" edge="1">
          <mxGeometry relative="1" as="geometry">
            <mxPoint x="840" y="470" as="sourcePoint" />
            <mxPoint x="840" y="520" as="targetPoint" />
          </mxGeometry>
        </mxCell>
        <mxCell id="KvoUGaDT58BbhrPoAscn-103" value="S" style="text;html=1;strokeColor=none;fillColor=none;align=center;verticalAlign=middle;whiteSpace=wrap;rounded=0;" parent="1" vertex="1">
          <mxGeometry x="800" y="465" width="60" height="30" as="geometry" />
        </mxCell>
        <mxCell id="KvoUGaDT58BbhrPoAscn-104" value="S" style="text;html=1;strokeColor=none;fillColor=none;align=center;verticalAlign=middle;whiteSpace=wrap;rounded=0;" parent="1" vertex="1">
          <mxGeometry x="820" y="465" width="60" height="30" as="geometry" />
        </mxCell>
        <mxCell id="KvoUGaDT58BbhrPoAscn-105" value="S" style="text;html=1;strokeColor=none;fillColor=none;align=center;verticalAlign=middle;whiteSpace=wrap;rounded=0;" parent="1" vertex="1">
          <mxGeometry x="900" y="253" width="60" height="30" as="geometry" />
        </mxCell>
        <mxCell id="KvoUGaDT58BbhrPoAscn-106" value="S" style="text;html=1;strokeColor=none;fillColor=none;align=center;verticalAlign=middle;whiteSpace=wrap;rounded=0;" parent="1" vertex="1">
          <mxGeometry x="870" y="253" width="60" height="30" as="geometry" />
        </mxCell>
        <mxCell id="KvoUGaDT58BbhrPoAscn-107" value="S" style="text;html=1;strokeColor=none;fillColor=none;align=center;verticalAlign=middle;whiteSpace=wrap;rounded=0;" parent="1" vertex="1">
          <mxGeometry x="840" y="253" width="60" height="30" as="geometry" />
        </mxCell>
        <mxCell id="KvoUGaDT58BbhrPoAscn-108" value="M" style="text;html=1;strokeColor=none;fillColor=none;align=center;verticalAlign=middle;whiteSpace=wrap;rounded=0;" parent="1" vertex="1">
          <mxGeometry x="870" y="312" width="60" height="30" as="geometry" />
        </mxCell>
        <mxCell id="KvoUGaDT58BbhrPoAscn-109" value="M" style="text;html=1;strokeColor=none;fillColor=none;align=center;verticalAlign=middle;whiteSpace=wrap;rounded=0;" parent="1" vertex="1">
          <mxGeometry x="900" y="312" width="60" height="30" as="geometry" />
        </mxCell>
        <mxCell id="KvoUGaDT58BbhrPoAscn-110" value="32/64-bit HP AXI" style="text;html=1;strokeColor=none;fillColor=none;align=center;verticalAlign=middle;whiteSpace=wrap;rounded=0;" parent="1" vertex="1">
          <mxGeometry x="895" y="480" width="60" height="30" as="geometry" />
        </mxCell>
        <mxCell id="KvoUGaDT58BbhrPoAscn-111" value="Clock and Reset&lt;br&gt;Controller&lt;br&gt;(APU Controlled)" style="rounded=0;whiteSpace=wrap;html=1;" parent="1" vertex="1">
          <mxGeometry x="1077.5" y="420" width="105" height="50" as="geometry" />
        </mxCell>
        <mxCell id="KvoUGaDT58BbhrPoAscn-125" style="edgeStyle=orthogonalEdgeStyle;rounded=0;orthogonalLoop=1;jettySize=auto;html=1;exitX=0.5;exitY=1;exitDx=0;exitDy=0;entryX=0.5;entryY=0;entryDx=0;entryDy=0;" parent="1" source="KvoUGaDT58BbhrPoAscn-112" target="KvoUGaDT58BbhrPoAscn-111" edge="1">
          <mxGeometry relative="1" as="geometry" />
        </mxCell>
        <mxCell id="v0913r71u1T3ladlf1mR-20" value="Chosen Frequencies" style="edgeLabel;html=1;align=center;verticalAlign=middle;resizable=0;points=[];" parent="KvoUGaDT58BbhrPoAscn-125" vertex="1" connectable="0">
          <mxGeometry x="-0.1086" y="2" relative="1" as="geometry">
            <mxPoint as="offset" />
          </mxGeometry>
        </mxCell>
        <mxCell id="KvoUGaDT58BbhrPoAscn-112" value="PS PLLs and Clock Dividers&amp;nbsp;" style="rounded=0;whiteSpace=wrap;html=1;" parent="1" vertex="1">
          <mxGeometry x="1070" y="230" width="120" height="120" as="geometry" />
        </mxCell>
        <mxCell id="KvoUGaDT58BbhrPoAscn-113" value="Rest of PS (Not Shown)" style="rounded=0;whiteSpace=wrap;html=1;" parent="1" vertex="1">
          <mxGeometry x="965" y="275.5" width="70" height="47" as="geometry" />
        </mxCell>
        <mxCell id="KvoUGaDT58BbhrPoAscn-114" style="edgeStyle=orthogonalEdgeStyle;rounded=0;orthogonalLoop=1;jettySize=auto;html=1;exitX=1;exitY=0.5;exitDx=0;exitDy=0;entryX=0.002;entryY=0.386;entryDx=0;entryDy=0;entryPerimeter=0;startArrow=classic;startFill=1;" parent="1" source="KvoUGaDT58BbhrPoAscn-113" target="KvoUGaDT58BbhrPoAscn-112" edge="1">
          <mxGeometry relative="1" as="geometry" />
        </mxCell>
        <mxCell id="KvoUGaDT58BbhrPoAscn-123" style="edgeStyle=orthogonalEdgeStyle;rounded=0;orthogonalLoop=1;jettySize=auto;html=1;exitX=0.75;exitY=1;exitDx=0;exitDy=0;entryX=1;entryY=0.25;entryDx=0;entryDy=0;" parent="1" source="KvoUGaDT58BbhrPoAscn-115" target="BBbgDl7xEyTMO4sRADf5-2" edge="1">
          <mxGeometry relative="1" as="geometry" />
        </mxCell>
        <mxCell id="KvoUGaDT58BbhrPoAscn-124" value="125 MHz,&lt;br&gt;always&lt;br&gt;running" style="edgeLabel;html=1;align=center;verticalAlign=middle;resizable=0;points=[];labelBackgroundColor=none;" parent="KvoUGaDT58BbhrPoAscn-123" vertex="1" connectable="0">
          <mxGeometry x="0.576" y="4" relative="1" as="geometry">
            <mxPoint x="1" y="76" as="offset" />
          </mxGeometry>
        </mxCell>
        <mxCell id="KvoUGaDT58BbhrPoAscn-115" value="Ethernet PHY&lt;br&gt;(And PLL)" style="rounded=0;whiteSpace=wrap;html=1;" parent="1" vertex="1">
          <mxGeometry x="1200" y="100" width="100" height="40" as="geometry" />
        </mxCell>
        <mxCell id="KvoUGaDT58BbhrPoAscn-121" style="edgeStyle=orthogonalEdgeStyle;rounded=0;orthogonalLoop=1;jettySize=auto;html=1;exitX=0.5;exitY=1;exitDx=0;exitDy=0;" parent="1" source="KvoUGaDT58BbhrPoAscn-116" target="KvoUGaDT58BbhrPoAscn-112" edge="1">
          <mxGeometry relative="1" as="geometry" />
        </mxCell>
        <mxCell id="KvoUGaDT58BbhrPoAscn-122" style="edgeStyle=orthogonalEdgeStyle;rounded=0;orthogonalLoop=1;jettySize=auto;html=1;exitX=0.5;exitY=1;exitDx=0;exitDy=0;entryX=0;entryY=0.5;entryDx=0;entryDy=0;" parent="1" source="KvoUGaDT58BbhrPoAscn-116" target="KvoUGaDT58BbhrPoAscn-115" edge="1">
          <mxGeometry relative="1" as="geometry" />
        </mxCell>
        <mxCell id="KvoUGaDT58BbhrPoAscn-116" value="50 MHz Crystal" style="rounded=0;whiteSpace=wrap;html=1;" parent="1" vertex="1">
          <mxGeometry x="1075" y="60" width="110" height="25" as="geometry" />
        </mxCell>
        <mxCell id="v0913r71u1T3ladlf1mR-2" style="edgeStyle=orthogonalEdgeStyle;rounded=0;orthogonalLoop=1;jettySize=auto;html=1;startArrow=none;startFill=0;" parent="1" edge="1">
          <mxGeometry relative="1" as="geometry">
            <mxPoint x="1100" y="470" as="sourcePoint" />
            <mxPoint x="1100" y="520" as="targetPoint" />
          </mxGeometry>
        </mxCell>
        <mxCell id="v0913r71u1T3ladlf1mR-4" style="edgeStyle=orthogonalEdgeStyle;rounded=0;orthogonalLoop=1;jettySize=auto;html=1;startArrow=none;startFill=0;" parent="1" edge="1">
          <mxGeometry relative="1" as="geometry">
            <mxPoint x="1140" y="470" as="sourcePoint" />
            <mxPoint x="1140" y="520" as="targetPoint" />
          </mxGeometry>
        </mxCell>
        <mxCell id="v0913r71u1T3ladlf1mR-5" value="x4 Pairs" style="text;html=1;strokeColor=none;fillColor=none;align=center;verticalAlign=middle;whiteSpace=wrap;rounded=0;" parent="1" vertex="1">
          <mxGeometry x="1146" y="494" width="60" height="30" as="geometry" />
        </mxCell>
        <mxCell id="v0913r71u1T3ladlf1mR-6" value="CLK0" style="text;html=1;strokeColor=none;fillColor=none;align=center;verticalAlign=middle;whiteSpace=wrap;rounded=0;" parent="1" vertex="1">
          <mxGeometry x="1050" y="470" width="60" height="30" as="geometry" />
        </mxCell>
        <mxCell id="v0913r71u1T3ladlf1mR-8" value="FCLK" style="text;html=1;strokeColor=none;fillColor=none;align=center;verticalAlign=middle;whiteSpace=wrap;rounded=0;" parent="1" vertex="1">
          <mxGeometry x="1090" y="465" width="60" height="30" as="geometry" />
        </mxCell>
        <mxCell id="v0913r71u1T3ladlf1mR-9" value="RESET0_N" style="text;html=1;strokeColor=none;fillColor=none;align=center;verticalAlign=middle;whiteSpace=wrap;rounded=0;" parent="1" vertex="1">
          <mxGeometry x="1146" y="470" width="60" height="30" as="geometry" />
        </mxCell>
        <mxCell id="v0913r71u1T3ladlf1mR-15" style="edgeStyle=orthogonalEdgeStyle;rounded=0;orthogonalLoop=1;jettySize=auto;html=1;exitX=0.75;exitY=1;exitDx=0;exitDy=0;startArrow=classic;startFill=1;entryX=0.439;entryY=-0.008;entryDx=0;entryDy=0;entryPerimeter=0;" parent="1" target="KvoUGaDT58BbhrPoAscn-62" edge="1">
          <mxGeometry relative="1" as="geometry">
            <mxPoint x="677.8399999999999" y="520" as="sourcePoint" />
            <mxPoint x="678" y="550" as="targetPoint" />
          </mxGeometry>
        </mxCell>
        <mxCell id="v0913r71u1T3ladlf1mR-19" style="edgeStyle=orthogonalEdgeStyle;rounded=0;orthogonalLoop=1;jettySize=auto;html=1;exitX=0.75;exitY=1;exitDx=0;exitDy=0;startArrow=classic;startFill=1;entryX=0.439;entryY=-0.008;entryDx=0;entryDy=0;entryPerimeter=0;" parent="1" edge="1">
          <mxGeometry relative="1" as="geometry">
            <mxPoint x="589.9999999999999" y="520" as="sourcePoint" />
            <mxPoint x="590.16" y="554" as="targetPoint" />
          </mxGeometry>
        </mxCell>
        <mxCell id="v0913r71u1T3ladlf1mR-21" value="PLL to&lt;br&gt;targeted LETC frequency" style="rounded=0;whiteSpace=wrap;html=1;" parent="1" vertex="1">
          <mxGeometry x="1080" y="550" width="80" height="80" as="geometry" />
        </mxCell>
        <mxCell id="v0913r71u1T3ladlf1mR-23" style="edgeStyle=orthogonalEdgeStyle;rounded=0;orthogonalLoop=1;jettySize=auto;html=1;startArrow=none;startFill=0;" parent="1" edge="1">
          <mxGeometry relative="1" as="geometry">
            <mxPoint x="1100" y="520" as="sourcePoint" />
            <mxPoint x="1100" y="550" as="targetPoint" />
          </mxGeometry>
        </mxCell>
        <mxCell id="v0913r71u1T3ladlf1mR-24" style="edgeStyle=orthogonalEdgeStyle;rounded=0;orthogonalLoop=1;jettySize=auto;html=1;startArrow=none;startFill=0;" parent="1" edge="1">
          <mxGeometry relative="1" as="geometry">
            <mxPoint x="1140" y="520" as="sourcePoint" />
            <mxPoint x="1140" y="550" as="targetPoint" />
          </mxGeometry>
        </mxCell>
        <mxCell id="v0913r71u1T3ladlf1mR-27" style="edgeStyle=orthogonalEdgeStyle;rounded=0;orthogonalLoop=1;jettySize=auto;html=1;startArrow=none;startFill=0;" parent="1" edge="1">
          <mxGeometry relative="1" as="geometry">
            <mxPoint x="1139.99" y="549.99" as="sourcePoint" />
            <mxPoint x="1182.49" y="649.99" as="targetPoint" />
            <Array as="points">
              <mxPoint x="1139.99" y="529.99" />
              <mxPoint x="1182.99" y="529.99" />
            </Array>
          </mxGeometry>
        </mxCell>
        <mxCell id="v0913r71u1T3ladlf1mR-28" style="edgeStyle=orthogonalEdgeStyle;rounded=0;orthogonalLoop=1;jettySize=auto;html=1;startArrow=none;startFill=0;" parent="1" edge="1">
          <mxGeometry relative="1" as="geometry">
            <mxPoint x="1119.8" y="630" as="sourcePoint" />
            <mxPoint x="1120" y="650" as="targetPoint" />
          </mxGeometry>
        </mxCell>
        <mxCell id="v0913r71u1T3ladlf1mR-29" value="Global LETC Clock + Reset&lt;br&gt;and AXI clock back to PS" style="text;html=1;strokeColor=none;fillColor=none;align=center;verticalAlign=middle;whiteSpace=wrap;rounded=0;" parent="1" vertex="1">
          <mxGeometry x="1040" y="650" width="160" height="30" as="geometry" />
        </mxCell>
        <mxCell id="v0913r71u1T3ladlf1mR-31" value="Used for testing before Conductor can bring up CLK0" style="shape=callout;whiteSpace=wrap;html=1;perimeter=calloutPerimeter;fillColor=#e1d5e7;strokeColor=#9673a6;direction=west;size=70;position=0.45;position2=0.87;" parent="1" vertex="1">
          <mxGeometry x="1196" y="603" width="120" height="128" as="geometry" />
        </mxCell>
        <mxCell id="v0913r71u1T3ladlf1mR-32" value="LETC Core" style="rounded=0;whiteSpace=wrap;html=1;" parent="1" vertex="1">
          <mxGeometry x="783" y="640" width="202" height="150" as="geometry" />
        </mxCell>
        <mxCell id="v0913r71u1T3ladlf1mR-38" value="M" style="text;html=1;strokeColor=none;fillColor=none;align=center;verticalAlign=middle;whiteSpace=wrap;rounded=0;" parent="1" vertex="1">
          <mxGeometry x="844" y="613" width="60" height="30" as="geometry" />
        </mxCell>
        <mxCell id="v0913r71u1T3ladlf1mR-39" value="S" style="text;html=1;strokeColor=none;fillColor=none;align=center;verticalAlign=middle;whiteSpace=wrap;rounded=0;" parent="1" vertex="1">
          <mxGeometry x="844" y="593" width="60" height="30" as="geometry" />
        </mxCell>
        <mxCell id="v0913r71u1T3ladlf1mR-40" value="LETC&lt;br&gt;ACLINT" style="rounded=0;whiteSpace=wrap;html=1;" parent="1" vertex="1">
          <mxGeometry x="650" y="640" width="100" height="70" as="geometry" />
        </mxCell>
        <mxCell id="v0913r71u1T3ladlf1mR-41" style="edgeStyle=orthogonalEdgeStyle;rounded=0;orthogonalLoop=1;jettySize=auto;html=1;exitX=0.472;exitY=1.002;exitDx=0;exitDy=0;startArrow=classic;startFill=1;entryX=0.5;entryY=0;entryDx=0;entryDy=0;exitPerimeter=0;" parent="1" source="KvoUGaDT58BbhrPoAscn-62" target="v0913r71u1T3ladlf1mR-40" edge="1">
          <mxGeometry relative="1" as="geometry">
            <mxPoint x="697.9999999999999" y="600" as="sourcePoint" />
            <mxPoint x="698.16" y="634" as="targetPoint" />
          </mxGeometry>
        </mxCell>
        <mxCell id="v0913r71u1T3ladlf1mR-42" value="S" style="text;html=1;strokeColor=none;fillColor=none;align=center;verticalAlign=middle;whiteSpace=wrap;rounded=0;" parent="1" vertex="1">
          <mxGeometry x="659" y="613" width="60" height="30" as="geometry" />
        </mxCell>
        <mxCell id="v0913r71u1T3ladlf1mR-43" value="M" style="text;html=1;strokeColor=none;fillColor=none;align=center;verticalAlign=middle;whiteSpace=wrap;rounded=0;" parent="1" vertex="1">
          <mxGeometry x="659" y="593" width="60" height="30" as="geometry" />
        </mxCell>
        <mxCell id="v0913r71u1T3ladlf1mR-53" style="edgeStyle=orthogonalEdgeStyle;rounded=0;orthogonalLoop=1;jettySize=auto;html=1;exitX=0;exitY=0.75;exitDx=0;exitDy=0;entryX=1;entryY=0.5;entryDx=0;entryDy=0;" parent="1" source="v0913r71u1T3ladlf1mR-44" target="v0913r71u1T3ladlf1mR-50" edge="1">
          <mxGeometry relative="1" as="geometry" />
        </mxCell>
        <mxCell id="v0913r71u1T3ladlf1mR-44" value="LETC&lt;br&gt;HID IO" style="rounded=0;whiteSpace=wrap;html=1;" parent="1" vertex="1">
          <mxGeometry x="400" y="640" width="100" height="70" as="geometry" />
        </mxCell>
        <mxCell id="v0913r71u1T3ladlf1mR-47" style="edgeStyle=orthogonalEdgeStyle;rounded=0;orthogonalLoop=1;jettySize=auto;html=1;exitX=0.5;exitY=0;exitDx=0;exitDy=0;entryX=0.094;entryY=1.005;entryDx=0;entryDy=0;entryPerimeter=0;startArrow=classic;startFill=1;" parent="1" source="v0913r71u1T3ladlf1mR-44" target="KvoUGaDT58BbhrPoAscn-62" edge="1">
          <mxGeometry relative="1" as="geometry" />
        </mxCell>
        <mxCell id="v0913r71u1T3ladlf1mR-48" value="M" style="text;html=1;strokeColor=none;fillColor=none;align=center;verticalAlign=middle;whiteSpace=wrap;rounded=0;" parent="1" vertex="1">
          <mxGeometry x="410" y="593" width="60" height="30" as="geometry" />
        </mxCell>
        <mxCell id="v0913r71u1T3ladlf1mR-52" style="edgeStyle=orthogonalEdgeStyle;rounded=0;orthogonalLoop=1;jettySize=auto;html=1;exitX=1;exitY=0.5;exitDx=0;exitDy=0;entryX=0;entryY=0.25;entryDx=0;entryDy=0;" parent="1" source="v0913r71u1T3ladlf1mR-49" target="v0913r71u1T3ladlf1mR-44" edge="1">
          <mxGeometry relative="1" as="geometry" />
        </mxCell>
        <mxCell id="v0913r71u1T3ladlf1mR-49" value="Buttons" style="rounded=0;whiteSpace=wrap;html=1;" parent="1" vertex="1">
          <mxGeometry x="135" y="613" width="120" height="60" as="geometry" />
        </mxCell>
        <mxCell id="v0913r71u1T3ladlf1mR-50" value="LEDs" style="rounded=0;whiteSpace=wrap;html=1;" parent="1" vertex="1">
          <mxGeometry x="135" y="685" width="120" height="60" as="geometry" />
        </mxCell>
        <mxCell id="v0913r71u1T3ladlf1mR-51" value="S" style="text;html=1;strokeColor=none;fillColor=none;align=center;verticalAlign=middle;whiteSpace=wrap;rounded=0;" parent="1" vertex="1">
          <mxGeometry x="410" y="613" width="60" height="30" as="geometry" />
        </mxCell>
        <mxCell id="v0913r71u1T3ladlf1mR-54" value="Boot&lt;br&gt;ROM/RAM?" style="rounded=0;whiteSpace=wrap;html=1;" parent="1" vertex="1">
          <mxGeometry x="526" y="640" width="100" height="70" as="geometry" />
        </mxCell>
        <mxCell id="v0913r71u1T3ladlf1mR-56" style="edgeStyle=orthogonalEdgeStyle;rounded=0;orthogonalLoop=1;jettySize=auto;html=1;exitX=0.5;exitY=0;exitDx=0;exitDy=0;entryX=0.285;entryY=0.993;entryDx=0;entryDy=0;entryPerimeter=0;startArrow=classic;startFill=1;" parent="1" source="v0913r71u1T3ladlf1mR-54" target="KvoUGaDT58BbhrPoAscn-62" edge="1">
          <mxGeometry relative="1" as="geometry" />
        </mxCell>
        <mxCell id="v0913r71u1T3ladlf1mR-57" value="M" style="text;html=1;strokeColor=none;fillColor=none;align=center;verticalAlign=middle;whiteSpace=wrap;rounded=0;" parent="1" vertex="1">
          <mxGeometry x="536" y="593" width="60" height="30" as="geometry" />
        </mxCell>
        <mxCell id="v0913r71u1T3ladlf1mR-58" value="S" style="text;html=1;strokeColor=none;fillColor=none;align=center;verticalAlign=middle;whiteSpace=wrap;rounded=0;" parent="1" vertex="1">
          <mxGeometry x="536" y="613" width="60" height="30" as="geometry" />
        </mxCell>
        <mxCell id="v0913r71u1T3ladlf1mR-63" style="edgeStyle=orthogonalEdgeStyle;rounded=0;orthogonalLoop=1;jettySize=auto;html=1;exitX=0;exitY=0.5;exitDx=0;exitDy=0;entryX=1;entryY=0.5;entryDx=0;entryDy=0;" parent="1" source="v0913r71u1T3ladlf1mR-59" target="v0913r71u1T3ladlf1mR-60" edge="1">
          <mxGeometry relative="1" as="geometry" />
        </mxCell>
        <mxCell id="v0913r71u1T3ladlf1mR-59" value="Debug I/O Lines" style="rounded=0;whiteSpace=wrap;html=1;" parent="1" vertex="1">
          <mxGeometry x="135" y="780" width="120" height="60" as="geometry" />
        </mxCell>
        <mxCell id="v0913r71u1T3ladlf1mR-61" style="edgeStyle=orthogonalEdgeStyle;rounded=0;orthogonalLoop=1;jettySize=auto;html=1;exitX=0.5;exitY=0;exitDx=0;exitDy=0;" parent="1" source="v0913r71u1T3ladlf1mR-60" target="KvoUGaDT58BbhrPoAscn-10" edge="1">
          <mxGeometry relative="1" as="geometry" />
        </mxCell>
        <mxCell id="v0913r71u1T3ladlf1mR-60" value="Logic Analyzer" style="rounded=0;whiteSpace=wrap;html=1;" parent="1" vertex="1">
          <mxGeometry x="25" y="780" width="80" height="60" as="geometry" />
        </mxCell>
        <mxCell id="v0913r71u1T3ladlf1mR-62" value="Computer" style="text;html=1;strokeColor=none;fillColor=none;align=center;verticalAlign=middle;whiteSpace=wrap;rounded=0;" parent="1" vertex="1">
          <mxGeometry x="35" y="253" width="60" height="30" as="geometry" />
        </mxCell>
        <mxCell id="v0913r71u1T3ladlf1mR-65" style="edgeStyle=orthogonalEdgeStyle;rounded=0;orthogonalLoop=1;jettySize=auto;html=1;exitX=0;exitY=0.5;exitDx=0;exitDy=0;entryX=1;entryY=0.5;entryDx=0;entryDy=0;" parent="1" source="v0913r71u1T3ladlf1mR-64" target="v0913r71u1T3ladlf1mR-59" edge="1">
          <mxGeometry relative="1" as="geometry" />
        </mxCell>
        <mxCell id="v0913r71u1T3ladlf1mR-64" value="Used as needed" style="text;html=1;strokeColor=none;fillColor=none;align=center;verticalAlign=middle;whiteSpace=wrap;rounded=0;" parent="1" vertex="1">
          <mxGeometry x="350" y="770" width="60" height="30" as="geometry" />
        </mxCell>
        <mxCell id="v0913r71u1T3ladlf1mR-66" value="Used for testing before Conductor can bring up RESET0_N" style="shape=callout;whiteSpace=wrap;html=1;perimeter=calloutPerimeter;fillColor=#e1d5e7;strokeColor=#9673a6;direction=east;size=55;position=0.5;position2=0.92;" parent="1" vertex="1">
          <mxGeometry x="180" y="512" width="120" height="128" as="geometry" />
        </mxCell>
        <mxCell id="v0913r71u1T3ladlf1mR-69" value="TODO or should we use one of the HP AXI ports?" style="shape=note;whiteSpace=wrap;html=1;backgroundOutline=1;fontColor=#000000;darkOpacity=0.05;fillColor=#FFF9B2;strokeColor=none;fillStyle=solid;direction=west;gradientDirection=north;gradientColor=#FFF2A1;shadow=1;size=20;pointerEvents=1;" parent="1" vertex="1">
          <mxGeometry x="844" y="533" width="172" height="37" as="geometry" />
        </mxCell>
        <mxCell id="v0913r71u1T3ladlf1mR-70" value="TODO how do we route UART 1 interrupts to LETC Core?" style="shape=note;whiteSpace=wrap;html=1;backgroundOutline=1;fontColor=#000000;darkOpacity=0.05;fillColor=#FFF9B2;strokeColor=none;fillStyle=solid;direction=west;gradientDirection=north;gradientColor=#FFF2A1;shadow=1;size=20;pointerEvents=1;" parent="1" vertex="1">
          <mxGeometry x="394" y="535" width="176" height="41" as="geometry" />
        </mxCell>
        <mxCell id="v0913r71u1T3ladlf1mR-71" value="TODO is a PLIC necessary if we only have one kind of I/O interrupt (the UART?)" style="shape=note;whiteSpace=wrap;html=1;backgroundOutline=1;fontColor=#000000;darkOpacity=0.05;fillColor=#FFF9B2;strokeColor=none;fillStyle=solid;direction=west;gradientDirection=north;gradientColor=#FFF2A1;shadow=1;size=20;pointerEvents=1;" parent="1" vertex="1">
          <mxGeometry x="482" y="720" width="188" height="60" as="geometry" />
        </mxCell>
        <mxCell id="v0913r71u1T3ladlf1mR-72" value="M" style="text;html=1;strokeColor=none;fillColor=none;align=center;verticalAlign=middle;whiteSpace=wrap;rounded=0;" parent="1" vertex="1">
          <mxGeometry x="377" y="415" width="60" height="30" as="geometry" />
        </mxCell>
        <mxCell id="v0913r71u1T3ladlf1mR-73" value="S" style="text;html=1;strokeColor=none;fillColor=none;align=center;verticalAlign=middle;whiteSpace=wrap;rounded=0;" parent="1" vertex="1">
          <mxGeometry x="365" y="415" width="60" height="30" as="geometry" />
        </mxCell>
        <mxCell id="v0913r71u1T3ladlf1mR-74" value="S" style="text;html=1;strokeColor=none;fillColor=none;align=center;verticalAlign=middle;whiteSpace=wrap;rounded=0;" parent="1" vertex="1">
          <mxGeometry x="365" y="335" width="60" height="30" as="geometry" />
        </mxCell>
        <mxCell id="v0913r71u1T3ladlf1mR-75" value="S" style="text;html=1;strokeColor=none;fillColor=none;align=center;verticalAlign=middle;whiteSpace=wrap;rounded=0;" parent="1" vertex="1">
          <mxGeometry x="365" y="292.5" width="60" height="30" as="geometry" />
        </mxCell>
        <mxCell id="v0913r71u1T3ladlf1mR-76" value="S" style="text;html=1;strokeColor=none;fillColor=none;align=center;verticalAlign=middle;whiteSpace=wrap;rounded=0;" parent="1" vertex="1">
          <mxGeometry x="365" y="253" width="60" height="30" as="geometry" />
        </mxCell>
        <mxCell id="v0913r71u1T3ladlf1mR-77" value="M" style="text;html=1;strokeColor=none;fillColor=none;align=center;verticalAlign=middle;whiteSpace=wrap;rounded=0;" parent="1" vertex="1">
          <mxGeometry x="377" y="335" width="60" height="30" as="geometry" />
        </mxCell>
        <mxCell id="v0913r71u1T3ladlf1mR-78" value="M" style="text;html=1;strokeColor=none;fillColor=none;align=center;verticalAlign=middle;whiteSpace=wrap;rounded=0;" parent="1" vertex="1">
          <mxGeometry x="425" y="312" width="60" height="30" as="geometry" />
        </mxCell>
        <mxCell id="v0913r71u1T3ladlf1mR-79" value="M" style="text;html=1;strokeColor=none;fillColor=none;align=center;verticalAlign=middle;whiteSpace=wrap;rounded=0;" parent="1" vertex="1">
          <mxGeometry x="455" y="312" width="60" height="30" as="geometry" />
        </mxCell>
        <mxCell id="v0913r71u1T3ladlf1mR-81" value="&lt;font color=&quot;#969696&quot;&gt;M&lt;/font&gt;" style="text;html=1;strokeColor=none;fillColor=none;align=center;verticalAlign=middle;whiteSpace=wrap;rounded=0;" parent="1" vertex="1">
          <mxGeometry x="628" y="350" width="60" height="30" as="geometry" />
        </mxCell>
        <mxCell id="v0913r71u1T3ladlf1mR-82" value="&lt;font color=&quot;#969696&quot;&gt;S&lt;/font&gt;" style="text;html=1;strokeColor=none;fillColor=none;align=center;verticalAlign=middle;whiteSpace=wrap;rounded=0;" parent="1" vertex="1">
          <mxGeometry x="820" y="253" width="60" height="30" as="geometry" />
        </mxCell>
        <mxCell id="v0913r71u1T3ladlf1mR-84" style="edgeStyle=orthogonalEdgeStyle;rounded=0;orthogonalLoop=1;jettySize=auto;html=1;exitX=1;exitY=0.5;exitDx=0;exitDy=0;entryX=-0.001;entryY=0.23;entryDx=0;entryDy=0;entryPerimeter=0;" parent="1" source="v0913r71u1T3ladlf1mR-40" target="v0913r71u1T3ladlf1mR-32" edge="1">
          <mxGeometry relative="1" as="geometry" />
        </mxCell>
        <mxCell id="v0913r71u1T3ladlf1mR-85" value="Timer&lt;br&gt;Interrupt" style="edgeLabel;html=1;align=center;verticalAlign=middle;resizable=0;points=[];" parent="v0913r71u1T3ladlf1mR-84" vertex="1" connectable="0">
          <mxGeometry x="0.1114" y="1" relative="1" as="geometry">
            <mxPoint x="9" y="26" as="offset" />
          </mxGeometry>
        </mxCell>
      </root>
    </mxGraphModel>
  </diagram>
  <diagram name="v0.6.0" id="gcQ2qrrCSSMyxL2LxP6h">
    <mxGraphModel dx="1400" dy="844" grid="1" gridSize="10" guides="1" tooltips="1" connect="1" arrows="1" fold="1" page="1" pageScale="1" pageWidth="850" pageHeight="1100" math="0" shadow="0">
      <root>
        <mxCell id="TMLQuUg_ZA5LObD_rTEB-0" />
        <mxCell id="TMLQuUg_ZA5LObD_rTEB-1" parent="TMLQuUg_ZA5LObD_rTEB-0" />
        <mxCell id="TMLQuUg_ZA5LObD_rTEB-2" value="" style="rounded=0;whiteSpace=wrap;html=1;fillColor=#f8cecc;strokeColor=#b85450;" vertex="1" parent="TMLQuUg_ZA5LObD_rTEB-1">
          <mxGeometry x="120" y="40" width="1200" height="880" as="geometry" />
        </mxCell>
        <mxCell id="TMLQuUg_ZA5LObD_rTEB-3" value="" style="rounded=0;whiteSpace=wrap;html=1;" vertex="1" parent="TMLQuUg_ZA5LObD_rTEB-1">
          <mxGeometry x="277" y="160" width="973" height="720" as="geometry" />
        </mxCell>
        <mxCell id="TMLQuUg_ZA5LObD_rTEB-4" value="" style="rounded=0;whiteSpace=wrap;html=1;fillColor=#f5f5f5;fontColor=#333333;strokeColor=#666666;" vertex="1" parent="TMLQuUg_ZA5LObD_rTEB-1">
          <mxGeometry x="317" y="200" width="893" height="320" as="geometry" />
        </mxCell>
        <mxCell id="TMLQuUg_ZA5LObD_rTEB-5" value="" style="rounded=0;whiteSpace=wrap;html=1;" vertex="1" parent="TMLQuUg_ZA5LObD_rTEB-1">
          <mxGeometry x="317" y="520" width="893" height="320" as="geometry" />
        </mxCell>
        <mxCell id="TMLQuUg_ZA5LObD_rTEB-6" value="&lt;font style=&quot;font-size: 24px;&quot;&gt;PS&lt;/font&gt;" style="text;html=1;strokeColor=none;fillColor=none;align=center;verticalAlign=middle;whiteSpace=wrap;rounded=0;" vertex="1" parent="TMLQuUg_ZA5LObD_rTEB-1">
          <mxGeometry x="317" y="204" width="60" height="30" as="geometry" />
        </mxCell>
        <mxCell id="TMLQuUg_ZA5LObD_rTEB-7" value="&lt;font style=&quot;font-size: 24px;&quot;&gt;PL&lt;/font&gt;" style="text;html=1;strokeColor=none;fillColor=none;align=center;verticalAlign=middle;whiteSpace=wrap;rounded=0;" vertex="1" parent="TMLQuUg_ZA5LObD_rTEB-1">
          <mxGeometry x="317" y="524" width="60" height="30" as="geometry" />
        </mxCell>
        <mxCell id="TMLQuUg_ZA5LObD_rTEB-8" value="512 MiB DDR3" style="rounded=0;whiteSpace=wrap;html=1;" vertex="1" parent="TMLQuUg_ZA5LObD_rTEB-1">
          <mxGeometry x="850" y="80" width="120" height="40" as="geometry" />
        </mxCell>
        <mxCell id="TMLQuUg_ZA5LObD_rTEB-9" value="DDR3 PHY" style="rounded=0;whiteSpace=wrap;html=1;" vertex="1" parent="TMLQuUg_ZA5LObD_rTEB-1">
          <mxGeometry x="850" y="200" width="120" height="30" as="geometry" />
        </mxCell>
        <mxCell id="TMLQuUg_ZA5LObD_rTEB-10" value="DDR3 Controller" style="rounded=0;whiteSpace=wrap;html=1;" vertex="1" parent="TMLQuUg_ZA5LObD_rTEB-1">
          <mxGeometry x="850" y="230" width="120" height="30" as="geometry" />
        </mxCell>
        <mxCell id="TMLQuUg_ZA5LObD_rTEB-11" value="" style="rounded=0;whiteSpace=wrap;html=1;fillColor=#d5e8d4;strokeColor=#82b366;" vertex="1" parent="TMLQuUg_ZA5LObD_rTEB-1">
          <mxGeometry x="518" y="204" width="322" height="246" as="geometry" />
        </mxCell>
        <mxCell id="TMLQuUg_ZA5LObD_rTEB-12" style="edgeStyle=orthogonalEdgeStyle;rounded=0;orthogonalLoop=1;jettySize=auto;html=1;exitX=0.5;exitY=0;exitDx=0;exitDy=0;entryX=0.5;entryY=1;entryDx=0;entryDy=0;startArrow=classicThin;startFill=1;" edge="1" parent="TMLQuUg_ZA5LObD_rTEB-1" source="TMLQuUg_ZA5LObD_rTEB-14" target="TMLQuUg_ZA5LObD_rTEB-33">
          <mxGeometry relative="1" as="geometry" />
        </mxCell>
        <mxCell id="TMLQuUg_ZA5LObD_rTEB-13" style="edgeStyle=orthogonalEdgeStyle;rounded=0;orthogonalLoop=1;jettySize=auto;html=1;exitX=1;exitY=0.25;exitDx=0;exitDy=0;strokeColor=#969696;startArrow=classic;startFill=1;" edge="1" parent="TMLQuUg_ZA5LObD_rTEB-1">
          <mxGeometry relative="1" as="geometry">
            <mxPoint x="647" y="376.25" as="sourcePoint" />
            <mxPoint x="860" y="260" as="targetPoint" />
            <Array as="points">
              <mxPoint x="690" y="376.75" />
              <mxPoint x="690" y="313.75" />
              <mxPoint x="860" y="313.75" />
            </Array>
          </mxGeometry>
        </mxCell>
        <mxCell id="kgeovyQ0Oze8jUoFP0bp-3" style="edgeStyle=orthogonalEdgeStyle;rounded=0;orthogonalLoop=1;jettySize=auto;html=1;exitX=1;exitY=0.75;exitDx=0;exitDy=0;startArrow=classic;startFill=1;fillColor=#f5f5f5;strokeColor=#969696;" edge="1" parent="TMLQuUg_ZA5LObD_rTEB-1" source="TMLQuUg_ZA5LObD_rTEB-14" target="TMLQuUg_ZA5LObD_rTEB-85">
          <mxGeometry relative="1" as="geometry">
            <Array as="points">
              <mxPoint x="790" y="437" />
              <mxPoint x="790" y="330" />
              <mxPoint x="1060" y="330" />
              <mxPoint x="1060" y="445" />
            </Array>
          </mxGeometry>
        </mxCell>
        <mxCell id="TMLQuUg_ZA5LObD_rTEB-14" value="Central AXI Interconnect (Slow)" style="rounded=0;whiteSpace=wrap;html=1;" vertex="1" parent="TMLQuUg_ZA5LObD_rTEB-1">
          <mxGeometry x="417" y="340" width="230" height="130" as="geometry" />
        </mxCell>
        <mxCell id="TMLQuUg_ZA5LObD_rTEB-15" value="" style="sketch=0;aspect=fixed;pointerEvents=1;shadow=0;dashed=0;html=1;strokeColor=none;labelPosition=center;verticalLabelPosition=bottom;verticalAlign=top;align=center;fillColor=#00188D;shape=mxgraph.azure.computer" vertex="1" parent="TMLQuUg_ZA5LObD_rTEB-1">
          <mxGeometry x="40" y="277.5" width="50" height="45" as="geometry" />
        </mxCell>
        <mxCell id="TMLQuUg_ZA5LObD_rTEB-16" style="edgeStyle=orthogonalEdgeStyle;rounded=0;orthogonalLoop=1;jettySize=auto;html=1;exitX=1;exitY=0.5;exitDx=0;exitDy=0;entryX=0.25;entryY=0;entryDx=0;entryDy=0;startArrow=classic;startFill=1;" edge="1" parent="TMLQuUg_ZA5LObD_rTEB-1" source="TMLQuUg_ZA5LObD_rTEB-18" target="TMLQuUg_ZA5LObD_rTEB-14">
          <mxGeometry relative="1" as="geometry" />
        </mxCell>
        <mxCell id="TMLQuUg_ZA5LObD_rTEB-17" style="edgeStyle=orthogonalEdgeStyle;rounded=0;orthogonalLoop=1;jettySize=auto;html=1;exitX=0;exitY=0.5;exitDx=0;exitDy=0;entryX=1;entryY=0.25;entryDx=0;entryDy=0;startArrow=classic;startFill=1;" edge="1" parent="TMLQuUg_ZA5LObD_rTEB-1" source="TMLQuUg_ZA5LObD_rTEB-18" target="TMLQuUg_ZA5LObD_rTEB-29">
          <mxGeometry relative="1" as="geometry" />
        </mxCell>
        <mxCell id="TMLQuUg_ZA5LObD_rTEB-18" value="UART 0" style="rounded=0;whiteSpace=wrap;html=1;" vertex="1" parent="TMLQuUg_ZA5LObD_rTEB-1">
          <mxGeometry x="337" y="260" width="50" height="40" as="geometry" />
        </mxCell>
        <mxCell id="TMLQuUg_ZA5LObD_rTEB-19" style="edgeStyle=orthogonalEdgeStyle;rounded=0;orthogonalLoop=1;jettySize=auto;html=1;exitX=0;exitY=0.5;exitDx=0;exitDy=0;entryX=1;entryY=0.75;entryDx=0;entryDy=0;startArrow=classic;startFill=1;" edge="1" parent="TMLQuUg_ZA5LObD_rTEB-1" source="TMLQuUg_ZA5LObD_rTEB-20" target="TMLQuUg_ZA5LObD_rTEB-29">
          <mxGeometry relative="1" as="geometry" />
        </mxCell>
        <mxCell id="kgeovyQ0Oze8jUoFP0bp-0" style="edgeStyle=orthogonalEdgeStyle;rounded=0;orthogonalLoop=1;jettySize=auto;html=1;exitX=1;exitY=0.75;exitDx=0;exitDy=0;entryX=0;entryY=0.75;entryDx=0;entryDy=0;fillColor=#ffe6cc;strokeColor=#d79b00;" edge="1" parent="TMLQuUg_ZA5LObD_rTEB-1" source="TMLQuUg_ZA5LObD_rTEB-20" target="TMLQuUg_ZA5LObD_rTEB-112">
          <mxGeometry relative="1" as="geometry">
            <Array as="points">
              <mxPoint x="400" y="330" />
              <mxPoint x="400" y="540" />
              <mxPoint x="440" y="540" />
              <mxPoint x="440" y="753" />
            </Array>
          </mxGeometry>
        </mxCell>
        <mxCell id="kgeovyQ0Oze8jUoFP0bp-11" value="UART1&lt;div&gt;IRQ&lt;/div&gt;" style="edgeLabel;html=1;align=center;verticalAlign=middle;resizable=0;points=[];" vertex="1" connectable="0" parent="kgeovyQ0Oze8jUoFP0bp-0">
          <mxGeometry x="-0.5881" y="-3" relative="1" as="geometry">
            <mxPoint x="10" y="-2" as="offset" />
          </mxGeometry>
        </mxCell>
        <mxCell id="TMLQuUg_ZA5LObD_rTEB-20" value="UART 1" style="rounded=0;whiteSpace=wrap;html=1;" vertex="1" parent="TMLQuUg_ZA5LObD_rTEB-1">
          <mxGeometry x="337" y="300" width="50" height="40" as="geometry" />
        </mxCell>
        <mxCell id="TMLQuUg_ZA5LObD_rTEB-21" style="edgeStyle=orthogonalEdgeStyle;rounded=0;orthogonalLoop=1;jettySize=auto;html=1;exitX=1;exitY=0.5;exitDx=0;exitDy=0;entryX=0.122;entryY=0.013;entryDx=0;entryDy=0;entryPerimeter=0;startArrow=classic;startFill=1;" edge="1" parent="TMLQuUg_ZA5LObD_rTEB-1" source="TMLQuUg_ZA5LObD_rTEB-20" target="TMLQuUg_ZA5LObD_rTEB-14">
          <mxGeometry relative="1" as="geometry">
            <Array as="points">
              <mxPoint x="445" y="320" />
            </Array>
          </mxGeometry>
        </mxCell>
        <mxCell id="TMLQuUg_ZA5LObD_rTEB-22" style="edgeStyle=orthogonalEdgeStyle;rounded=0;orthogonalLoop=1;jettySize=auto;html=1;exitX=0;exitY=0.5;exitDx=0;exitDy=0;startArrow=classic;startFill=1;" edge="1" parent="TMLQuUg_ZA5LObD_rTEB-1" source="TMLQuUg_ZA5LObD_rTEB-23" target="TMLQuUg_ZA5LObD_rTEB-24">
          <mxGeometry relative="1" as="geometry" />
        </mxCell>
        <mxCell id="TMLQuUg_ZA5LObD_rTEB-23" value="SDIO" style="rounded=0;whiteSpace=wrap;html=1;" vertex="1" parent="TMLQuUg_ZA5LObD_rTEB-1">
          <mxGeometry x="337" y="340" width="50" height="40" as="geometry" />
        </mxCell>
        <mxCell id="TMLQuUg_ZA5LObD_rTEB-24" value="microSD&lt;br&gt;Card" style="pointerEvents=1;shadow=0;dashed=0;html=1;strokeColor=none;fillColor=#4495D1;labelPosition=center;verticalLabelPosition=bottom;verticalAlign=top;align=center;outlineConnect=0;shape=mxgraph.veeam.sd_card;" vertex="1" parent="TMLQuUg_ZA5LObD_rTEB-1">
          <mxGeometry x="178.8" y="400" width="32.4" height="38.8" as="geometry" />
        </mxCell>
        <mxCell id="TMLQuUg_ZA5LObD_rTEB-25" style="edgeStyle=orthogonalEdgeStyle;rounded=0;orthogonalLoop=1;jettySize=auto;html=1;exitX=0.5;exitY=1;exitDx=0;exitDy=0;entryX=0.5;entryY=0;entryDx=0;entryDy=0;startArrow=classic;startFill=1;" edge="1" parent="TMLQuUg_ZA5LObD_rTEB-1" source="TMLQuUg_ZA5LObD_rTEB-8" target="TMLQuUg_ZA5LObD_rTEB-9">
          <mxGeometry relative="1" as="geometry" />
        </mxCell>
        <mxCell id="TMLQuUg_ZA5LObD_rTEB-26" value="16 Bit DDR3 Link" style="edgeLabel;html=1;align=center;verticalAlign=middle;resizable=0;points=[];labelBackgroundColor=none;" vertex="1" connectable="0" parent="TMLQuUg_ZA5LObD_rTEB-25">
          <mxGeometry x="0.0781" y="1" relative="1" as="geometry">
            <mxPoint x="49" y="-24" as="offset" />
          </mxGeometry>
        </mxCell>
        <mxCell id="TMLQuUg_ZA5LObD_rTEB-27" value="&lt;font style=&quot;font-size: 24px;&quot;&gt;Zync 7000 FPGA&lt;/font&gt;" style="text;html=1;strokeColor=none;fillColor=none;align=center;verticalAlign=middle;whiteSpace=wrap;rounded=0;" vertex="1" parent="TMLQuUg_ZA5LObD_rTEB-1">
          <mxGeometry x="287" y="170" width="190" height="30" as="geometry" />
        </mxCell>
        <mxCell id="TMLQuUg_ZA5LObD_rTEB-28" value="&lt;font style=&quot;font-size: 24px;&quot;&gt;Cora Z7 Board&lt;/font&gt;" style="text;html=1;strokeColor=none;fillColor=none;align=center;verticalAlign=middle;whiteSpace=wrap;rounded=0;" vertex="1" parent="TMLQuUg_ZA5LObD_rTEB-1">
          <mxGeometry x="124" y="45" width="170" height="30" as="geometry" />
        </mxCell>
        <mxCell id="TMLQuUg_ZA5LObD_rTEB-29" value="USB UART&lt;br&gt;Converter" style="rounded=0;whiteSpace=wrap;html=1;" vertex="1" parent="TMLQuUg_ZA5LObD_rTEB-1">
          <mxGeometry x="140" y="260" width="110" height="80" as="geometry" />
        </mxCell>
        <mxCell id="TMLQuUg_ZA5LObD_rTEB-30" value="Other&lt;br&gt;IO" style="rounded=0;whiteSpace=wrap;html=1;" vertex="1" parent="TMLQuUg_ZA5LObD_rTEB-1">
          <mxGeometry x="337" y="380" width="50" height="120" as="geometry" />
        </mxCell>
        <mxCell id="TMLQuUg_ZA5LObD_rTEB-31" style="edgeStyle=orthogonalEdgeStyle;rounded=0;orthogonalLoop=1;jettySize=auto;html=1;exitX=0;exitY=0.5;exitDx=0;exitDy=0;entryX=1;entryY=0.5;entryDx=0;entryDy=0;entryPerimeter=0;startArrow=classic;startFill=1;" edge="1" parent="TMLQuUg_ZA5LObD_rTEB-1" source="TMLQuUg_ZA5LObD_rTEB-29" target="TMLQuUg_ZA5LObD_rTEB-15">
          <mxGeometry relative="1" as="geometry" />
        </mxCell>
        <mxCell id="TMLQuUg_ZA5LObD_rTEB-32" style="edgeStyle=orthogonalEdgeStyle;rounded=0;orthogonalLoop=1;jettySize=auto;html=1;exitX=1;exitY=0.5;exitDx=0;exitDy=0;entryX=0;entryY=0.5;entryDx=0;entryDy=0;startArrow=classic;startFill=1;" edge="1" parent="TMLQuUg_ZA5LObD_rTEB-1" source="TMLQuUg_ZA5LObD_rTEB-33" target="TMLQuUg_ZA5LObD_rTEB-36">
          <mxGeometry relative="1" as="geometry" />
        </mxCell>
        <mxCell id="TMLQuUg_ZA5LObD_rTEB-33" value="Cortex A9&lt;br&gt;@667 MHz" style="rounded=0;whiteSpace=wrap;html=1;" vertex="1" parent="TMLQuUg_ZA5LObD_rTEB-1">
          <mxGeometry x="536" y="220" width="80" height="80" as="geometry" />
        </mxCell>
        <mxCell id="TMLQuUg_ZA5LObD_rTEB-34" style="edgeStyle=orthogonalEdgeStyle;rounded=0;orthogonalLoop=1;jettySize=auto;html=1;exitX=1;exitY=0.5;exitDx=0;exitDy=0;entryX=0;entryY=0.5;entryDx=0;entryDy=0;startArrow=classic;startFill=1;" edge="1" parent="TMLQuUg_ZA5LObD_rTEB-1" source="TMLQuUg_ZA5LObD_rTEB-36" target="TMLQuUg_ZA5LObD_rTEB-40">
          <mxGeometry relative="1" as="geometry" />
        </mxCell>
        <mxCell id="TMLQuUg_ZA5LObD_rTEB-35" style="edgeStyle=orthogonalEdgeStyle;rounded=0;orthogonalLoop=1;jettySize=auto;html=1;exitX=0.75;exitY=1;exitDx=0;exitDy=0;startArrow=classic;startFill=1;" edge="1" parent="TMLQuUg_ZA5LObD_rTEB-1" source="TMLQuUg_ZA5LObD_rTEB-36" target="TMLQuUg_ZA5LObD_rTEB-37">
          <mxGeometry relative="1" as="geometry" />
        </mxCell>
        <mxCell id="TMLQuUg_ZA5LObD_rTEB-36" value="Cache Coherency / Snoop&lt;br&gt;Logic" style="rounded=0;whiteSpace=wrap;html=1;" vertex="1" parent="TMLQuUg_ZA5LObD_rTEB-1">
          <mxGeometry x="638" y="220" width="80" height="80" as="geometry" />
        </mxCell>
        <mxCell id="TMLQuUg_ZA5LObD_rTEB-37" value="OCM&lt;br&gt;(256 KiB SRAM)" style="rounded=0;whiteSpace=wrap;html=1;" vertex="1" parent="TMLQuUg_ZA5LObD_rTEB-1">
          <mxGeometry x="698" y="340" width="80" height="80" as="geometry" />
        </mxCell>
        <mxCell id="TMLQuUg_ZA5LObD_rTEB-38" style="edgeStyle=orthogonalEdgeStyle;rounded=0;orthogonalLoop=1;jettySize=auto;html=1;exitX=1;exitY=0.5;exitDx=0;exitDy=0;entryX=0;entryY=0.152;entryDx=0;entryDy=0;entryPerimeter=0;startArrow=classic;startFill=1;" edge="1" parent="TMLQuUg_ZA5LObD_rTEB-1" source="TMLQuUg_ZA5LObD_rTEB-23" target="TMLQuUg_ZA5LObD_rTEB-14">
          <mxGeometry relative="1" as="geometry" />
        </mxCell>
        <mxCell id="TMLQuUg_ZA5LObD_rTEB-39" style="edgeStyle=orthogonalEdgeStyle;rounded=0;orthogonalLoop=1;jettySize=auto;html=1;exitX=1;exitY=0.5;exitDx=0;exitDy=0;entryX=0.001;entryY=0.775;entryDx=0;entryDy=0;entryPerimeter=0;startArrow=classic;startFill=1;" edge="1" parent="TMLQuUg_ZA5LObD_rTEB-1" source="TMLQuUg_ZA5LObD_rTEB-30" target="TMLQuUg_ZA5LObD_rTEB-14">
          <mxGeometry relative="1" as="geometry" />
        </mxCell>
        <mxCell id="TMLQuUg_ZA5LObD_rTEB-40" value="L2$" style="rounded=0;whiteSpace=wrap;html=1;" vertex="1" parent="TMLQuUg_ZA5LObD_rTEB-1">
          <mxGeometry x="740" y="220" width="80" height="80" as="geometry" />
        </mxCell>
        <mxCell id="TMLQuUg_ZA5LObD_rTEB-41" value="High Speed AXI Interconnect" style="rounded=0;whiteSpace=wrap;html=1;" vertex="1" parent="TMLQuUg_ZA5LObD_rTEB-1">
          <mxGeometry x="800" y="340" width="250" height="130" as="geometry" />
        </mxCell>
        <mxCell id="TMLQuUg_ZA5LObD_rTEB-42" style="edgeStyle=orthogonalEdgeStyle;rounded=0;orthogonalLoop=1;jettySize=auto;html=1;entryX=0.404;entryY=0.999;entryDx=0;entryDy=0;entryPerimeter=0;startArrow=classic;startFill=1;" edge="1" parent="TMLQuUg_ZA5LObD_rTEB-1">
          <mxGeometry relative="1" as="geometry">
            <Array as="points">
              <mxPoint x="678" y="520" />
              <mxPoint x="678" y="520" />
            </Array>
            <mxPoint x="678" y="300" as="sourcePoint" />
            <mxPoint x="677.7720000000002" y="520.6800000000001" as="targetPoint" />
          </mxGeometry>
        </mxCell>
        <mxCell id="TMLQuUg_ZA5LObD_rTEB-43" value="64-bit Cache-Coherent&lt;br&gt;AXI ACP Port" style="edgeLabel;html=1;align=center;verticalAlign=middle;resizable=0;points=[];labelBackgroundColor=none;" vertex="1" connectable="0" parent="TMLQuUg_ZA5LObD_rTEB-42">
          <mxGeometry x="0.5338" y="-4" relative="1" as="geometry">
            <mxPoint x="64" y="21" as="offset" />
          </mxGeometry>
        </mxCell>
        <mxCell id="TMLQuUg_ZA5LObD_rTEB-44" value="&lt;font style=&quot;font-size: 24px;&quot;&gt;APU&lt;/font&gt;" style="text;html=1;strokeColor=none;fillColor=none;align=center;verticalAlign=middle;whiteSpace=wrap;rounded=0;" vertex="1" parent="TMLQuUg_ZA5LObD_rTEB-1">
          <mxGeometry x="587" y="305" width="60" height="30" as="geometry" />
        </mxCell>
        <mxCell id="TMLQuUg_ZA5LObD_rTEB-45" style="edgeStyle=orthogonalEdgeStyle;rounded=0;orthogonalLoop=1;jettySize=auto;html=1;exitX=0.25;exitY=1;exitDx=0;exitDy=0;entryX=1;entryY=0.75;entryDx=0;entryDy=0;startArrow=classic;startFill=1;" edge="1" parent="TMLQuUg_ZA5LObD_rTEB-1" source="TMLQuUg_ZA5LObD_rTEB-10" target="TMLQuUg_ZA5LObD_rTEB-40">
          <mxGeometry relative="1" as="geometry" />
        </mxCell>
        <mxCell id="TMLQuUg_ZA5LObD_rTEB-46" style="edgeStyle=orthogonalEdgeStyle;rounded=0;orthogonalLoop=1;jettySize=auto;html=1;exitX=0.75;exitY=1;exitDx=0;exitDy=0;entryX=0.56;entryY=0;entryDx=0;entryDy=0;entryPerimeter=0;startArrow=classic;startFill=1;" edge="1" parent="TMLQuUg_ZA5LObD_rTEB-1" source="TMLQuUg_ZA5LObD_rTEB-10" target="TMLQuUg_ZA5LObD_rTEB-41">
          <mxGeometry relative="1" as="geometry" />
        </mxCell>
        <mxCell id="TMLQuUg_ZA5LObD_rTEB-47" style="edgeStyle=orthogonalEdgeStyle;rounded=0;orthogonalLoop=1;jettySize=auto;html=1;exitX=1;exitY=0.5;exitDx=0;exitDy=0;entryX=-0.001;entryY=0.311;entryDx=0;entryDy=0;entryPerimeter=0;startArrow=classic;startFill=1;" edge="1" parent="TMLQuUg_ZA5LObD_rTEB-1" source="TMLQuUg_ZA5LObD_rTEB-37" target="TMLQuUg_ZA5LObD_rTEB-41">
          <mxGeometry relative="1" as="geometry" />
        </mxCell>
        <mxCell id="TMLQuUg_ZA5LObD_rTEB-48" style="edgeStyle=orthogonalEdgeStyle;rounded=0;orthogonalLoop=1;jettySize=auto;html=1;exitX=0.812;exitY=1.013;exitDx=0;exitDy=0;entryX=0.5;entryY=0;entryDx=0;entryDy=0;startArrow=classic;startFill=1;exitPerimeter=0;" edge="1" parent="TMLQuUg_ZA5LObD_rTEB-1" source="TMLQuUg_ZA5LObD_rTEB-49" target="TMLQuUg_ZA5LObD_rTEB-112">
          <mxGeometry relative="1" as="geometry" />
        </mxCell>
        <mxCell id="TMLQuUg_ZA5LObD_rTEB-49" value="LETC Matrix (Simple AXI Interconnect)" style="rounded=0;whiteSpace=wrap;html=1;" vertex="1" parent="TMLQuUg_ZA5LObD_rTEB-1">
          <mxGeometry x="470" y="554" width="580" height="46" as="geometry" />
        </mxCell>
        <mxCell id="TMLQuUg_ZA5LObD_rTEB-50" value="M" style="text;html=1;strokeColor=none;fillColor=none;align=center;verticalAlign=middle;whiteSpace=wrap;rounded=0;" vertex="1" parent="TMLQuUg_ZA5LObD_rTEB-1">
          <mxGeometry x="638" y="494" width="60" height="30" as="geometry" />
        </mxCell>
        <mxCell id="TMLQuUg_ZA5LObD_rTEB-51" value="S" style="text;html=1;strokeColor=none;fillColor=none;align=center;verticalAlign=middle;whiteSpace=wrap;rounded=0;" vertex="1" parent="TMLQuUg_ZA5LObD_rTEB-1">
          <mxGeometry x="638" y="292.5" width="60" height="30" as="geometry" />
        </mxCell>
        <mxCell id="TMLQuUg_ZA5LObD_rTEB-52" style="edgeStyle=orthogonalEdgeStyle;rounded=0;orthogonalLoop=1;jettySize=auto;html=1;exitX=0.5;exitY=1;exitDx=0;exitDy=0;startArrow=classic;startFill=1;" edge="1" parent="TMLQuUg_ZA5LObD_rTEB-1">
          <mxGeometry relative="1" as="geometry">
            <mxPoint x="450" y="470" as="sourcePoint" />
            <mxPoint x="450" y="520" as="targetPoint" />
          </mxGeometry>
        </mxCell>
        <mxCell id="TMLQuUg_ZA5LObD_rTEB-53" style="edgeStyle=orthogonalEdgeStyle;rounded=0;orthogonalLoop=1;jettySize=auto;html=1;exitX=0.5;exitY=1;exitDx=0;exitDy=0;startArrow=classic;startFill=1;" edge="1" parent="TMLQuUg_ZA5LObD_rTEB-1">
          <mxGeometry relative="1" as="geometry">
            <mxPoint x="470" y="470" as="sourcePoint" />
            <mxPoint x="470" y="520" as="targetPoint" />
          </mxGeometry>
        </mxCell>
        <mxCell id="TMLQuUg_ZA5LObD_rTEB-54" style="edgeStyle=orthogonalEdgeStyle;rounded=0;orthogonalLoop=1;jettySize=auto;html=1;exitX=0.5;exitY=1;exitDx=0;exitDy=0;startArrow=classic;startFill=1;" edge="1" parent="TMLQuUg_ZA5LObD_rTEB-1">
          <mxGeometry relative="1" as="geometry">
            <mxPoint x="590" y="470" as="sourcePoint" />
            <mxPoint x="590" y="520" as="targetPoint" />
          </mxGeometry>
        </mxCell>
        <mxCell id="TMLQuUg_ZA5LObD_rTEB-55" style="edgeStyle=orthogonalEdgeStyle;rounded=0;orthogonalLoop=1;jettySize=auto;html=1;exitX=0.5;exitY=1;exitDx=0;exitDy=0;startArrow=classic;startFill=1;" edge="1" parent="TMLQuUg_ZA5LObD_rTEB-1">
          <mxGeometry relative="1" as="geometry">
            <mxPoint x="610" y="470" as="sourcePoint" />
            <mxPoint x="610" y="520" as="targetPoint" />
          </mxGeometry>
        </mxCell>
        <mxCell id="TMLQuUg_ZA5LObD_rTEB-56" value="32-bit GP&lt;br&gt;AXI" style="text;html=1;strokeColor=none;fillColor=none;align=center;verticalAlign=middle;whiteSpace=wrap;rounded=0;" vertex="1" parent="TMLQuUg_ZA5LObD_rTEB-1">
          <mxGeometry x="490" y="480" width="60" height="30" as="geometry" />
        </mxCell>
        <mxCell id="TMLQuUg_ZA5LObD_rTEB-57" value="M" style="text;html=1;strokeColor=none;fillColor=none;align=center;verticalAlign=middle;whiteSpace=wrap;rounded=0;" vertex="1" parent="TMLQuUg_ZA5LObD_rTEB-1">
          <mxGeometry x="550" y="494" width="60" height="30" as="geometry" />
        </mxCell>
        <mxCell id="TMLQuUg_ZA5LObD_rTEB-58" value="M" style="text;html=1;strokeColor=none;fillColor=none;align=center;verticalAlign=middle;whiteSpace=wrap;rounded=0;" vertex="1" parent="TMLQuUg_ZA5LObD_rTEB-1">
          <mxGeometry x="570" y="494" width="60" height="30" as="geometry" />
        </mxCell>
        <mxCell id="TMLQuUg_ZA5LObD_rTEB-59" value="S" style="text;html=1;strokeColor=none;fillColor=none;align=center;verticalAlign=middle;whiteSpace=wrap;rounded=0;" vertex="1" parent="TMLQuUg_ZA5LObD_rTEB-1">
          <mxGeometry x="550" y="464" width="60" height="30" as="geometry" />
        </mxCell>
        <mxCell id="TMLQuUg_ZA5LObD_rTEB-60" value="M" style="text;html=1;strokeColor=none;fillColor=none;align=center;verticalAlign=middle;whiteSpace=wrap;rounded=0;" vertex="1" parent="TMLQuUg_ZA5LObD_rTEB-1">
          <mxGeometry x="430" y="464" width="60" height="30" as="geometry" />
        </mxCell>
        <mxCell id="TMLQuUg_ZA5LObD_rTEB-61" value="S" style="text;html=1;strokeColor=none;fillColor=none;align=center;verticalAlign=middle;whiteSpace=wrap;rounded=0;" vertex="1" parent="TMLQuUg_ZA5LObD_rTEB-1">
          <mxGeometry x="570" y="464" width="60" height="30" as="geometry" />
        </mxCell>
        <mxCell id="TMLQuUg_ZA5LObD_rTEB-62" value="M" style="text;html=1;strokeColor=none;fillColor=none;align=center;verticalAlign=middle;whiteSpace=wrap;rounded=0;" vertex="1" parent="TMLQuUg_ZA5LObD_rTEB-1">
          <mxGeometry x="410" y="464" width="60" height="30" as="geometry" />
        </mxCell>
        <mxCell id="TMLQuUg_ZA5LObD_rTEB-63" value="S" style="text;html=1;strokeColor=none;fillColor=none;align=center;verticalAlign=middle;whiteSpace=wrap;rounded=0;" vertex="1" parent="TMLQuUg_ZA5LObD_rTEB-1">
          <mxGeometry x="430" y="494" width="60" height="30" as="geometry" />
        </mxCell>
        <mxCell id="TMLQuUg_ZA5LObD_rTEB-64" value="S" style="text;html=1;strokeColor=none;fillColor=none;align=center;verticalAlign=middle;whiteSpace=wrap;rounded=0;" vertex="1" parent="TMLQuUg_ZA5LObD_rTEB-1">
          <mxGeometry x="410" y="494" width="60" height="30" as="geometry" />
        </mxCell>
        <mxCell id="TMLQuUg_ZA5LObD_rTEB-65" style="edgeStyle=orthogonalEdgeStyle;rounded=0;orthogonalLoop=1;jettySize=auto;html=1;exitX=0.75;exitY=1;exitDx=0;exitDy=0;entryX=0.56;entryY=0;entryDx=0;entryDy=0;entryPerimeter=0;startArrow=classic;startFill=1;" edge="1" parent="TMLQuUg_ZA5LObD_rTEB-1">
          <mxGeometry relative="1" as="geometry">
            <mxPoint x="909.92" y="260" as="sourcePoint" />
            <mxPoint x="909.92" y="340" as="targetPoint" />
          </mxGeometry>
        </mxCell>
        <mxCell id="TMLQuUg_ZA5LObD_rTEB-66" style="edgeStyle=orthogonalEdgeStyle;rounded=0;orthogonalLoop=1;jettySize=auto;html=1;exitX=0.75;exitY=1;exitDx=0;exitDy=0;startArrow=classic;startFill=1;" edge="1" parent="TMLQuUg_ZA5LObD_rTEB-1">
          <mxGeometry relative="1" as="geometry">
            <mxPoint x="1010" y="470" as="sourcePoint" />
            <mxPoint x="1010" y="520" as="targetPoint" />
          </mxGeometry>
        </mxCell>
        <mxCell id="TMLQuUg_ZA5LObD_rTEB-67" style="edgeStyle=orthogonalEdgeStyle;rounded=0;orthogonalLoop=1;jettySize=auto;html=1;exitX=0.75;exitY=1;exitDx=0;exitDy=0;startArrow=classic;startFill=1;" edge="1" parent="TMLQuUg_ZA5LObD_rTEB-1">
          <mxGeometry relative="1" as="geometry">
            <mxPoint x="990" y="470" as="sourcePoint" />
            <mxPoint x="990" y="520" as="targetPoint" />
          </mxGeometry>
        </mxCell>
        <mxCell id="TMLQuUg_ZA5LObD_rTEB-68" style="edgeStyle=orthogonalEdgeStyle;rounded=0;orthogonalLoop=1;jettySize=auto;html=1;exitX=0.75;exitY=1;exitDx=0;exitDy=0;startArrow=classic;startFill=1;" edge="1" parent="TMLQuUg_ZA5LObD_rTEB-1">
          <mxGeometry relative="1" as="geometry">
            <mxPoint x="860" y="470" as="sourcePoint" />
            <mxPoint x="860" y="520" as="targetPoint" />
          </mxGeometry>
        </mxCell>
        <mxCell id="TMLQuUg_ZA5LObD_rTEB-69" value="M" style="text;html=1;strokeColor=none;fillColor=none;align=center;verticalAlign=middle;whiteSpace=wrap;rounded=0;" vertex="1" parent="TMLQuUg_ZA5LObD_rTEB-1">
          <mxGeometry x="800" y="494" width="60" height="30" as="geometry" />
        </mxCell>
        <mxCell id="TMLQuUg_ZA5LObD_rTEB-70" value="M" style="text;html=1;strokeColor=none;fillColor=none;align=center;verticalAlign=middle;whiteSpace=wrap;rounded=0;" vertex="1" parent="TMLQuUg_ZA5LObD_rTEB-1">
          <mxGeometry x="820" y="494" width="60" height="30" as="geometry" />
        </mxCell>
        <mxCell id="TMLQuUg_ZA5LObD_rTEB-71" value="M" style="text;html=1;strokeColor=none;fillColor=none;align=center;verticalAlign=middle;whiteSpace=wrap;rounded=0;" vertex="1" parent="TMLQuUg_ZA5LObD_rTEB-1">
          <mxGeometry x="950" y="494" width="60" height="30" as="geometry" />
        </mxCell>
        <mxCell id="TMLQuUg_ZA5LObD_rTEB-72" value="M" style="text;html=1;strokeColor=none;fillColor=none;align=center;verticalAlign=middle;whiteSpace=wrap;rounded=0;" vertex="1" parent="TMLQuUg_ZA5LObD_rTEB-1">
          <mxGeometry x="970" y="494" width="60" height="30" as="geometry" />
        </mxCell>
        <mxCell id="TMLQuUg_ZA5LObD_rTEB-73" value="S" style="text;html=1;strokeColor=none;fillColor=none;align=center;verticalAlign=middle;whiteSpace=wrap;rounded=0;" vertex="1" parent="TMLQuUg_ZA5LObD_rTEB-1">
          <mxGeometry x="950" y="465" width="60" height="30" as="geometry" />
        </mxCell>
        <mxCell id="TMLQuUg_ZA5LObD_rTEB-74" value="S" style="text;html=1;strokeColor=none;fillColor=none;align=center;verticalAlign=middle;whiteSpace=wrap;rounded=0;" vertex="1" parent="TMLQuUg_ZA5LObD_rTEB-1">
          <mxGeometry x="970" y="465" width="60" height="30" as="geometry" />
        </mxCell>
        <mxCell id="TMLQuUg_ZA5LObD_rTEB-75" value="M" style="text;html=1;strokeColor=none;fillColor=none;align=center;verticalAlign=middle;whiteSpace=wrap;rounded=0;" vertex="1" parent="TMLQuUg_ZA5LObD_rTEB-1">
          <mxGeometry x="800" y="250" width="60" height="30" as="geometry" />
        </mxCell>
        <mxCell id="TMLQuUg_ZA5LObD_rTEB-76" style="edgeStyle=orthogonalEdgeStyle;rounded=0;orthogonalLoop=1;jettySize=auto;html=1;exitX=0.75;exitY=1;exitDx=0;exitDy=0;startArrow=classic;startFill=1;" edge="1" parent="TMLQuUg_ZA5LObD_rTEB-1">
          <mxGeometry relative="1" as="geometry">
            <mxPoint x="840" y="470" as="sourcePoint" />
            <mxPoint x="840" y="520" as="targetPoint" />
          </mxGeometry>
        </mxCell>
        <mxCell id="TMLQuUg_ZA5LObD_rTEB-77" value="S" style="text;html=1;strokeColor=none;fillColor=none;align=center;verticalAlign=middle;whiteSpace=wrap;rounded=0;" vertex="1" parent="TMLQuUg_ZA5LObD_rTEB-1">
          <mxGeometry x="800" y="465" width="60" height="30" as="geometry" />
        </mxCell>
        <mxCell id="TMLQuUg_ZA5LObD_rTEB-78" value="S" style="text;html=1;strokeColor=none;fillColor=none;align=center;verticalAlign=middle;whiteSpace=wrap;rounded=0;" vertex="1" parent="TMLQuUg_ZA5LObD_rTEB-1">
          <mxGeometry x="820" y="465" width="60" height="30" as="geometry" />
        </mxCell>
        <mxCell id="TMLQuUg_ZA5LObD_rTEB-79" value="S" style="text;html=1;strokeColor=none;fillColor=none;align=center;verticalAlign=middle;whiteSpace=wrap;rounded=0;" vertex="1" parent="TMLQuUg_ZA5LObD_rTEB-1">
          <mxGeometry x="900" y="253" width="60" height="30" as="geometry" />
        </mxCell>
        <mxCell id="TMLQuUg_ZA5LObD_rTEB-80" value="S" style="text;html=1;strokeColor=none;fillColor=none;align=center;verticalAlign=middle;whiteSpace=wrap;rounded=0;" vertex="1" parent="TMLQuUg_ZA5LObD_rTEB-1">
          <mxGeometry x="870" y="253" width="60" height="30" as="geometry" />
        </mxCell>
        <mxCell id="TMLQuUg_ZA5LObD_rTEB-81" value="S" style="text;html=1;strokeColor=none;fillColor=none;align=center;verticalAlign=middle;whiteSpace=wrap;rounded=0;" vertex="1" parent="TMLQuUg_ZA5LObD_rTEB-1">
          <mxGeometry x="840" y="253" width="60" height="30" as="geometry" />
        </mxCell>
        <mxCell id="TMLQuUg_ZA5LObD_rTEB-82" value="M" style="text;html=1;strokeColor=none;fillColor=none;align=center;verticalAlign=middle;whiteSpace=wrap;rounded=0;" vertex="1" parent="TMLQuUg_ZA5LObD_rTEB-1">
          <mxGeometry x="870" y="305" width="60" height="30" as="geometry" />
        </mxCell>
        <mxCell id="TMLQuUg_ZA5LObD_rTEB-83" value="M" style="text;html=1;strokeColor=none;fillColor=none;align=center;verticalAlign=middle;whiteSpace=wrap;rounded=0;" vertex="1" parent="TMLQuUg_ZA5LObD_rTEB-1">
          <mxGeometry x="900" y="306" width="60" height="30" as="geometry" />
        </mxCell>
        <mxCell id="TMLQuUg_ZA5LObD_rTEB-84" value="32/64-bit HP AXI" style="text;html=1;strokeColor=none;fillColor=none;align=center;verticalAlign=middle;whiteSpace=wrap;rounded=0;" vertex="1" parent="TMLQuUg_ZA5LObD_rTEB-1">
          <mxGeometry x="895" y="480" width="60" height="30" as="geometry" />
        </mxCell>
        <mxCell id="TMLQuUg_ZA5LObD_rTEB-85" value="Clock and Reset&lt;br&gt;Controller&lt;br&gt;(APU Controlled)" style="rounded=0;whiteSpace=wrap;html=1;" vertex="1" parent="TMLQuUg_ZA5LObD_rTEB-1">
          <mxGeometry x="1077.5" y="420" width="105" height="50" as="geometry" />
        </mxCell>
        <mxCell id="TMLQuUg_ZA5LObD_rTEB-86" style="edgeStyle=orthogonalEdgeStyle;rounded=0;orthogonalLoop=1;jettySize=auto;html=1;exitX=0.5;exitY=1;exitDx=0;exitDy=0;entryX=0.5;entryY=0;entryDx=0;entryDy=0;" edge="1" parent="TMLQuUg_ZA5LObD_rTEB-1" source="TMLQuUg_ZA5LObD_rTEB-88" target="TMLQuUg_ZA5LObD_rTEB-85">
          <mxGeometry relative="1" as="geometry" />
        </mxCell>
        <mxCell id="TMLQuUg_ZA5LObD_rTEB-87" value="Chosen Frequencies" style="edgeLabel;html=1;align=center;verticalAlign=middle;resizable=0;points=[];" vertex="1" connectable="0" parent="TMLQuUg_ZA5LObD_rTEB-86">
          <mxGeometry x="-0.1086" y="2" relative="1" as="geometry">
            <mxPoint as="offset" />
          </mxGeometry>
        </mxCell>
        <mxCell id="TMLQuUg_ZA5LObD_rTEB-88" value="PS PLLs and Clock Dividers&amp;nbsp;" style="rounded=0;whiteSpace=wrap;html=1;" vertex="1" parent="TMLQuUg_ZA5LObD_rTEB-1">
          <mxGeometry x="1070" y="230" width="120" height="120" as="geometry" />
        </mxCell>
        <mxCell id="TMLQuUg_ZA5LObD_rTEB-89" value="Rest of PS (Not Shown)" style="rounded=0;whiteSpace=wrap;html=1;" vertex="1" parent="TMLQuUg_ZA5LObD_rTEB-1">
          <mxGeometry x="965" y="275.5" width="70" height="47" as="geometry" />
        </mxCell>
        <mxCell id="TMLQuUg_ZA5LObD_rTEB-90" style="edgeStyle=orthogonalEdgeStyle;rounded=0;orthogonalLoop=1;jettySize=auto;html=1;exitX=1;exitY=0.5;exitDx=0;exitDy=0;entryX=0.002;entryY=0.386;entryDx=0;entryDy=0;entryPerimeter=0;startArrow=classic;startFill=1;" edge="1" parent="TMLQuUg_ZA5LObD_rTEB-1" source="TMLQuUg_ZA5LObD_rTEB-89" target="TMLQuUg_ZA5LObD_rTEB-88">
          <mxGeometry relative="1" as="geometry" />
        </mxCell>
        <mxCell id="TMLQuUg_ZA5LObD_rTEB-91" style="edgeStyle=orthogonalEdgeStyle;rounded=0;orthogonalLoop=1;jettySize=auto;html=1;exitX=0.75;exitY=1;exitDx=0;exitDy=0;entryX=1;entryY=0.25;entryDx=0;entryDy=0;" edge="1" parent="TMLQuUg_ZA5LObD_rTEB-1" source="TMLQuUg_ZA5LObD_rTEB-93" target="TMLQuUg_ZA5LObD_rTEB-5">
          <mxGeometry relative="1" as="geometry" />
        </mxCell>
        <mxCell id="TMLQuUg_ZA5LObD_rTEB-92" value="125 MHz,&lt;br&gt;always&lt;br&gt;running" style="edgeLabel;html=1;align=center;verticalAlign=middle;resizable=0;points=[];labelBackgroundColor=none;" vertex="1" connectable="0" parent="TMLQuUg_ZA5LObD_rTEB-91">
          <mxGeometry x="0.576" y="4" relative="1" as="geometry">
            <mxPoint x="1" y="76" as="offset" />
          </mxGeometry>
        </mxCell>
        <mxCell id="TMLQuUg_ZA5LObD_rTEB-93" value="Ethernet PHY&lt;br&gt;(And PLL)" style="rounded=0;whiteSpace=wrap;html=1;" vertex="1" parent="TMLQuUg_ZA5LObD_rTEB-1">
          <mxGeometry x="1200" y="100" width="100" height="40" as="geometry" />
        </mxCell>
        <mxCell id="TMLQuUg_ZA5LObD_rTEB-94" style="edgeStyle=orthogonalEdgeStyle;rounded=0;orthogonalLoop=1;jettySize=auto;html=1;exitX=0.5;exitY=1;exitDx=0;exitDy=0;" edge="1" parent="TMLQuUg_ZA5LObD_rTEB-1" source="TMLQuUg_ZA5LObD_rTEB-96" target="TMLQuUg_ZA5LObD_rTEB-88">
          <mxGeometry relative="1" as="geometry" />
        </mxCell>
        <mxCell id="TMLQuUg_ZA5LObD_rTEB-95" style="edgeStyle=orthogonalEdgeStyle;rounded=0;orthogonalLoop=1;jettySize=auto;html=1;exitX=0.5;exitY=1;exitDx=0;exitDy=0;entryX=0;entryY=0.5;entryDx=0;entryDy=0;" edge="1" parent="TMLQuUg_ZA5LObD_rTEB-1" source="TMLQuUg_ZA5LObD_rTEB-96" target="TMLQuUg_ZA5LObD_rTEB-93">
          <mxGeometry relative="1" as="geometry" />
        </mxCell>
        <mxCell id="TMLQuUg_ZA5LObD_rTEB-96" value="50 MHz Crystal" style="rounded=0;whiteSpace=wrap;html=1;" vertex="1" parent="TMLQuUg_ZA5LObD_rTEB-1">
          <mxGeometry x="1075" y="60" width="110" height="25" as="geometry" />
        </mxCell>
        <mxCell id="TMLQuUg_ZA5LObD_rTEB-97" style="edgeStyle=orthogonalEdgeStyle;rounded=0;orthogonalLoop=1;jettySize=auto;html=1;startArrow=none;startFill=0;" edge="1" parent="TMLQuUg_ZA5LObD_rTEB-1">
          <mxGeometry relative="1" as="geometry">
            <mxPoint x="1100" y="470" as="sourcePoint" />
            <mxPoint x="1100" y="520" as="targetPoint" />
          </mxGeometry>
        </mxCell>
        <mxCell id="TMLQuUg_ZA5LObD_rTEB-98" style="edgeStyle=orthogonalEdgeStyle;rounded=0;orthogonalLoop=1;jettySize=auto;html=1;startArrow=none;startFill=0;" edge="1" parent="TMLQuUg_ZA5LObD_rTEB-1">
          <mxGeometry relative="1" as="geometry">
            <mxPoint x="1140" y="470" as="sourcePoint" />
            <mxPoint x="1140" y="520" as="targetPoint" />
          </mxGeometry>
        </mxCell>
        <mxCell id="TMLQuUg_ZA5LObD_rTEB-99" value="x4 Pairs" style="text;html=1;strokeColor=none;fillColor=none;align=center;verticalAlign=middle;whiteSpace=wrap;rounded=0;" vertex="1" parent="TMLQuUg_ZA5LObD_rTEB-1">
          <mxGeometry x="1146" y="494" width="60" height="30" as="geometry" />
        </mxCell>
        <mxCell id="TMLQuUg_ZA5LObD_rTEB-100" value="CLK0" style="text;html=1;strokeColor=none;fillColor=none;align=center;verticalAlign=middle;whiteSpace=wrap;rounded=0;" vertex="1" parent="TMLQuUg_ZA5LObD_rTEB-1">
          <mxGeometry x="1050" y="470" width="60" height="30" as="geometry" />
        </mxCell>
        <mxCell id="TMLQuUg_ZA5LObD_rTEB-101" value="FCLK" style="text;html=1;strokeColor=none;fillColor=none;align=center;verticalAlign=middle;whiteSpace=wrap;rounded=0;" vertex="1" parent="TMLQuUg_ZA5LObD_rTEB-1">
          <mxGeometry x="1090" y="465" width="60" height="30" as="geometry" />
        </mxCell>
        <mxCell id="TMLQuUg_ZA5LObD_rTEB-102" value="RESET0_N" style="text;html=1;strokeColor=none;fillColor=none;align=center;verticalAlign=middle;whiteSpace=wrap;rounded=0;" vertex="1" parent="TMLQuUg_ZA5LObD_rTEB-1">
          <mxGeometry x="1146" y="470" width="60" height="30" as="geometry" />
        </mxCell>
        <mxCell id="TMLQuUg_ZA5LObD_rTEB-103" style="edgeStyle=orthogonalEdgeStyle;rounded=0;orthogonalLoop=1;jettySize=auto;html=1;exitX=0.75;exitY=1;exitDx=0;exitDy=0;startArrow=classic;startFill=1;entryX=0.358;entryY=0.008;entryDx=0;entryDy=0;entryPerimeter=0;" edge="1" parent="TMLQuUg_ZA5LObD_rTEB-1" target="TMLQuUg_ZA5LObD_rTEB-49">
          <mxGeometry relative="1" as="geometry">
            <mxPoint x="677.8399999999999" y="520" as="sourcePoint" />
            <mxPoint x="678" y="550" as="targetPoint" />
          </mxGeometry>
        </mxCell>
        <mxCell id="TMLQuUg_ZA5LObD_rTEB-104" style="edgeStyle=orthogonalEdgeStyle;rounded=0;orthogonalLoop=1;jettySize=auto;html=1;exitX=0.75;exitY=1;exitDx=0;exitDy=0;startArrow=classic;startFill=1;entryX=0.439;entryY=-0.008;entryDx=0;entryDy=0;entryPerimeter=0;" edge="1" parent="TMLQuUg_ZA5LObD_rTEB-1">
          <mxGeometry relative="1" as="geometry">
            <mxPoint x="589.9999999999999" y="520" as="sourcePoint" />
            <mxPoint x="590.16" y="554" as="targetPoint" />
          </mxGeometry>
        </mxCell>
        <mxCell id="TMLQuUg_ZA5LObD_rTEB-106" style="edgeStyle=orthogonalEdgeStyle;rounded=0;orthogonalLoop=1;jettySize=auto;html=1;startArrow=none;startFill=0;entryX=0.315;entryY=0.013;entryDx=0;entryDy=0;entryPerimeter=0;" edge="1" parent="TMLQuUg_ZA5LObD_rTEB-1" target="TMLQuUg_ZA5LObD_rTEB-110">
          <mxGeometry relative="1" as="geometry">
            <mxPoint x="1100" y="520" as="sourcePoint" />
            <mxPoint x="1100" y="550" as="targetPoint" />
          </mxGeometry>
        </mxCell>
        <mxCell id="kgeovyQ0Oze8jUoFP0bp-2" value="250 MHz" style="edgeLabel;html=1;align=center;verticalAlign=middle;resizable=0;points=[];" vertex="1" connectable="0" parent="TMLQuUg_ZA5LObD_rTEB-106">
          <mxGeometry x="-0.2724" y="-1" relative="1" as="geometry">
            <mxPoint as="offset" />
          </mxGeometry>
        </mxCell>
        <mxCell id="TMLQuUg_ZA5LObD_rTEB-107" style="edgeStyle=orthogonalEdgeStyle;rounded=0;orthogonalLoop=1;jettySize=auto;html=1;startArrow=none;startFill=0;entryX=0.565;entryY=-0.024;entryDx=0;entryDy=0;entryPerimeter=0;" edge="1" parent="TMLQuUg_ZA5LObD_rTEB-1" target="TMLQuUg_ZA5LObD_rTEB-110">
          <mxGeometry relative="1" as="geometry">
            <mxPoint x="1140" y="520" as="sourcePoint" />
            <mxPoint x="1140" y="550" as="targetPoint" />
          </mxGeometry>
        </mxCell>
        <mxCell id="TMLQuUg_ZA5LObD_rTEB-110" value="Global LETC Clock + Reset&lt;br&gt;and AXI clock back to PS" style="text;html=1;strokeColor=none;fillColor=none;align=center;verticalAlign=middle;whiteSpace=wrap;rounded=0;" vertex="1" parent="TMLQuUg_ZA5LObD_rTEB-1">
          <mxGeometry x="1050" y="593" width="160" height="30" as="geometry" />
        </mxCell>
        <mxCell id="TMLQuUg_ZA5LObD_rTEB-111" value="Used for testing before Conductor can bring up CLK0" style="shape=callout;whiteSpace=wrap;html=1;perimeter=calloutPerimeter;fillColor=#e1d5e7;strokeColor=#9673a6;direction=west;size=70;position=0.45;position2=0.87;" vertex="1" parent="TMLQuUg_ZA5LObD_rTEB-1">
          <mxGeometry x="1196" y="603" width="120" height="128" as="geometry" />
        </mxCell>
        <mxCell id="TMLQuUg_ZA5LObD_rTEB-112" value="LETC Core" style="rounded=0;whiteSpace=wrap;html=1;" vertex="1" parent="TMLQuUg_ZA5LObD_rTEB-1">
          <mxGeometry x="840" y="640" width="202" height="150" as="geometry" />
        </mxCell>
        <mxCell id="TMLQuUg_ZA5LObD_rTEB-114" value="S" style="text;html=1;strokeColor=none;fillColor=none;align=center;verticalAlign=middle;whiteSpace=wrap;rounded=0;" vertex="1" parent="TMLQuUg_ZA5LObD_rTEB-1">
          <mxGeometry x="900" y="593" width="60" height="30" as="geometry" />
        </mxCell>
        <mxCell id="TMLQuUg_ZA5LObD_rTEB-113" value="M" style="text;html=1;strokeColor=none;fillColor=none;align=center;verticalAlign=middle;whiteSpace=wrap;rounded=0;" vertex="1" parent="TMLQuUg_ZA5LObD_rTEB-1">
          <mxGeometry x="900" y="613" width="60" height="30" as="geometry" />
        </mxCell>
        <mxCell id="TMLQuUg_ZA5LObD_rTEB-115" value="LETC&lt;br&gt;ACLINT" style="rounded=0;whiteSpace=wrap;html=1;" vertex="1" parent="TMLQuUg_ZA5LObD_rTEB-1">
          <mxGeometry x="713.5" y="640" width="100" height="70" as="geometry" />
        </mxCell>
        <mxCell id="TMLQuUg_ZA5LObD_rTEB-116" style="edgeStyle=orthogonalEdgeStyle;rounded=0;orthogonalLoop=1;jettySize=auto;html=1;exitX=0.506;exitY=1.005;exitDx=0;exitDy=0;startArrow=classic;startFill=1;entryX=0.5;entryY=0;entryDx=0;entryDy=0;exitPerimeter=0;" edge="1" parent="TMLQuUg_ZA5LObD_rTEB-1" source="TMLQuUg_ZA5LObD_rTEB-49" target="TMLQuUg_ZA5LObD_rTEB-115">
          <mxGeometry relative="1" as="geometry">
            <mxPoint x="697.9999999999999" y="600" as="sourcePoint" />
            <mxPoint x="698.16" y="634" as="targetPoint" />
          </mxGeometry>
        </mxCell>
        <mxCell id="TMLQuUg_ZA5LObD_rTEB-117" value="S" style="text;html=1;strokeColor=none;fillColor=none;align=center;verticalAlign=middle;whiteSpace=wrap;rounded=0;" vertex="1" parent="TMLQuUg_ZA5LObD_rTEB-1">
          <mxGeometry x="718" y="613" width="60" height="30" as="geometry" />
        </mxCell>
        <mxCell id="TMLQuUg_ZA5LObD_rTEB-118" value="M" style="text;html=1;strokeColor=none;fillColor=none;align=center;verticalAlign=middle;whiteSpace=wrap;rounded=0;" vertex="1" parent="TMLQuUg_ZA5LObD_rTEB-1">
          <mxGeometry x="718" y="593" width="60" height="30" as="geometry" />
        </mxCell>
        <mxCell id="TMLQuUg_ZA5LObD_rTEB-119" style="edgeStyle=orthogonalEdgeStyle;rounded=0;orthogonalLoop=1;jettySize=auto;html=1;exitX=0;exitY=0.75;exitDx=0;exitDy=0;entryX=1;entryY=0.5;entryDx=0;entryDy=0;" edge="1" parent="TMLQuUg_ZA5LObD_rTEB-1" source="TMLQuUg_ZA5LObD_rTEB-120" target="TMLQuUg_ZA5LObD_rTEB-125">
          <mxGeometry relative="1" as="geometry" />
        </mxCell>
        <mxCell id="TMLQuUg_ZA5LObD_rTEB-120" value="LETC&lt;br&gt;HID IO" style="rounded=0;whiteSpace=wrap;html=1;" vertex="1" parent="TMLQuUg_ZA5LObD_rTEB-1">
          <mxGeometry x="460" y="640" width="100" height="70" as="geometry" />
        </mxCell>
        <mxCell id="TMLQuUg_ZA5LObD_rTEB-121" style="edgeStyle=orthogonalEdgeStyle;rounded=0;orthogonalLoop=1;jettySize=auto;html=1;exitX=0.5;exitY=0;exitDx=0;exitDy=0;entryX=0.069;entryY=1.016;entryDx=0;entryDy=0;entryPerimeter=0;startArrow=classic;startFill=1;" edge="1" parent="TMLQuUg_ZA5LObD_rTEB-1" source="TMLQuUg_ZA5LObD_rTEB-120" target="TMLQuUg_ZA5LObD_rTEB-49">
          <mxGeometry relative="1" as="geometry" />
        </mxCell>
        <mxCell id="TMLQuUg_ZA5LObD_rTEB-122" value="M" style="text;html=1;strokeColor=none;fillColor=none;align=center;verticalAlign=middle;whiteSpace=wrap;rounded=0;" vertex="1" parent="TMLQuUg_ZA5LObD_rTEB-1">
          <mxGeometry x="470" y="593" width="60" height="30" as="geometry" />
        </mxCell>
        <mxCell id="TMLQuUg_ZA5LObD_rTEB-123" style="edgeStyle=orthogonalEdgeStyle;rounded=0;orthogonalLoop=1;jettySize=auto;html=1;exitX=1;exitY=0.5;exitDx=0;exitDy=0;entryX=0;entryY=0.25;entryDx=0;entryDy=0;" edge="1" parent="TMLQuUg_ZA5LObD_rTEB-1" source="TMLQuUg_ZA5LObD_rTEB-124" target="TMLQuUg_ZA5LObD_rTEB-120">
          <mxGeometry relative="1" as="geometry" />
        </mxCell>
        <mxCell id="TMLQuUg_ZA5LObD_rTEB-124" value="Buttons" style="rounded=0;whiteSpace=wrap;html=1;" vertex="1" parent="TMLQuUg_ZA5LObD_rTEB-1">
          <mxGeometry x="135" y="613" width="120" height="60" as="geometry" />
        </mxCell>
        <mxCell id="TMLQuUg_ZA5LObD_rTEB-125" value="LEDs" style="rounded=0;whiteSpace=wrap;html=1;" vertex="1" parent="TMLQuUg_ZA5LObD_rTEB-1">
          <mxGeometry x="135" y="685" width="120" height="60" as="geometry" />
        </mxCell>
        <mxCell id="TMLQuUg_ZA5LObD_rTEB-126" value="S" style="text;html=1;strokeColor=none;fillColor=none;align=center;verticalAlign=middle;whiteSpace=wrap;rounded=0;" vertex="1" parent="TMLQuUg_ZA5LObD_rTEB-1">
          <mxGeometry x="470" y="613" width="60" height="30" as="geometry" />
        </mxCell>
        <mxCell id="TMLQuUg_ZA5LObD_rTEB-127" value="Boot&lt;br&gt;ROM/RAM?" style="rounded=0;whiteSpace=wrap;html=1;" vertex="1" parent="TMLQuUg_ZA5LObD_rTEB-1">
          <mxGeometry x="588" y="640" width="100" height="70" as="geometry" />
        </mxCell>
        <mxCell id="TMLQuUg_ZA5LObD_rTEB-128" style="edgeStyle=orthogonalEdgeStyle;rounded=0;orthogonalLoop=1;jettySize=auto;html=1;exitX=0.5;exitY=0;exitDx=0;exitDy=0;entryX=0.29;entryY=0.997;entryDx=0;entryDy=0;entryPerimeter=0;startArrow=classic;startFill=1;" edge="1" parent="TMLQuUg_ZA5LObD_rTEB-1" source="TMLQuUg_ZA5LObD_rTEB-127" target="TMLQuUg_ZA5LObD_rTEB-49">
          <mxGeometry relative="1" as="geometry" />
        </mxCell>
        <mxCell id="TMLQuUg_ZA5LObD_rTEB-129" value="M" style="text;html=1;strokeColor=none;fillColor=none;align=center;verticalAlign=middle;whiteSpace=wrap;rounded=0;" vertex="1" parent="TMLQuUg_ZA5LObD_rTEB-1">
          <mxGeometry x="596" y="593" width="60" height="30" as="geometry" />
        </mxCell>
        <mxCell id="TMLQuUg_ZA5LObD_rTEB-130" value="S" style="text;html=1;strokeColor=none;fillColor=none;align=center;verticalAlign=middle;whiteSpace=wrap;rounded=0;" vertex="1" parent="TMLQuUg_ZA5LObD_rTEB-1">
          <mxGeometry x="596" y="613" width="60" height="30" as="geometry" />
        </mxCell>
        <mxCell id="TMLQuUg_ZA5LObD_rTEB-131" style="edgeStyle=orthogonalEdgeStyle;rounded=0;orthogonalLoop=1;jettySize=auto;html=1;exitX=0;exitY=0.5;exitDx=0;exitDy=0;entryX=1;entryY=0.5;entryDx=0;entryDy=0;" edge="1" parent="TMLQuUg_ZA5LObD_rTEB-1" source="TMLQuUg_ZA5LObD_rTEB-132" target="TMLQuUg_ZA5LObD_rTEB-134">
          <mxGeometry relative="1" as="geometry" />
        </mxCell>
        <mxCell id="TMLQuUg_ZA5LObD_rTEB-132" value="Debug I/O Lines" style="rounded=0;whiteSpace=wrap;html=1;" vertex="1" parent="TMLQuUg_ZA5LObD_rTEB-1">
          <mxGeometry x="135" y="780" width="120" height="60" as="geometry" />
        </mxCell>
        <mxCell id="TMLQuUg_ZA5LObD_rTEB-133" style="edgeStyle=orthogonalEdgeStyle;rounded=0;orthogonalLoop=1;jettySize=auto;html=1;exitX=0.5;exitY=0;exitDx=0;exitDy=0;" edge="1" parent="TMLQuUg_ZA5LObD_rTEB-1" source="TMLQuUg_ZA5LObD_rTEB-134" target="TMLQuUg_ZA5LObD_rTEB-15">
          <mxGeometry relative="1" as="geometry" />
        </mxCell>
        <mxCell id="TMLQuUg_ZA5LObD_rTEB-134" value="Logic Analyzer" style="rounded=0;whiteSpace=wrap;html=1;" vertex="1" parent="TMLQuUg_ZA5LObD_rTEB-1">
          <mxGeometry x="25" y="780" width="80" height="60" as="geometry" />
        </mxCell>
        <mxCell id="TMLQuUg_ZA5LObD_rTEB-135" value="Computer" style="text;html=1;strokeColor=none;fillColor=none;align=center;verticalAlign=middle;whiteSpace=wrap;rounded=0;" vertex="1" parent="TMLQuUg_ZA5LObD_rTEB-1">
          <mxGeometry x="35" y="253" width="60" height="30" as="geometry" />
        </mxCell>
        <mxCell id="TMLQuUg_ZA5LObD_rTEB-136" style="edgeStyle=orthogonalEdgeStyle;rounded=0;orthogonalLoop=1;jettySize=auto;html=1;exitX=0;exitY=0.5;exitDx=0;exitDy=0;entryX=1;entryY=0.5;entryDx=0;entryDy=0;" edge="1" parent="TMLQuUg_ZA5LObD_rTEB-1" source="TMLQuUg_ZA5LObD_rTEB-137" target="TMLQuUg_ZA5LObD_rTEB-132">
          <mxGeometry relative="1" as="geometry" />
        </mxCell>
        <mxCell id="TMLQuUg_ZA5LObD_rTEB-137" value="Used as needed" style="text;html=1;strokeColor=none;fillColor=none;align=center;verticalAlign=middle;whiteSpace=wrap;rounded=0;" vertex="1" parent="TMLQuUg_ZA5LObD_rTEB-1">
          <mxGeometry x="350" y="770" width="60" height="30" as="geometry" />
        </mxCell>
        <mxCell id="TMLQuUg_ZA5LObD_rTEB-138" value="Used for testing before Conductor can bring up RESET0_N" style="shape=callout;whiteSpace=wrap;html=1;perimeter=calloutPerimeter;fillColor=#e1d5e7;strokeColor=#9673a6;direction=east;size=55;position=0.5;position2=0.92;" vertex="1" parent="TMLQuUg_ZA5LObD_rTEB-1">
          <mxGeometry x="180" y="512" width="120" height="128" as="geometry" />
        </mxCell>
        <mxCell id="TMLQuUg_ZA5LObD_rTEB-139" value="TODO or should we use one of the HP AXI ports?" style="shape=note;whiteSpace=wrap;html=1;backgroundOutline=1;fontColor=#000000;darkOpacity=0.05;fillColor=#FFF9B2;strokeColor=none;fillStyle=solid;direction=west;gradientDirection=north;gradientColor=#FFF2A1;shadow=1;size=20;pointerEvents=1;" vertex="1" parent="TMLQuUg_ZA5LObD_rTEB-1">
          <mxGeometry x="844" y="533" width="172" height="37" as="geometry" />
        </mxCell>
        <mxCell id="TMLQuUg_ZA5LObD_rTEB-141" value="TODO is a PLIC necessary if we only have one kind of I/O interrupt (the UART?)" style="shape=note;whiteSpace=wrap;html=1;backgroundOutline=1;fontColor=#000000;darkOpacity=0.05;fillColor=#FFF9B2;strokeColor=none;fillStyle=solid;direction=west;gradientDirection=north;gradientColor=#FFF2A1;shadow=1;size=20;pointerEvents=1;" vertex="1" parent="TMLQuUg_ZA5LObD_rTEB-1">
          <mxGeometry x="490" y="770" width="188" height="60" as="geometry" />
        </mxCell>
        <mxCell id="TMLQuUg_ZA5LObD_rTEB-142" value="M" style="text;html=1;strokeColor=none;fillColor=none;align=center;verticalAlign=middle;whiteSpace=wrap;rounded=0;" vertex="1" parent="TMLQuUg_ZA5LObD_rTEB-1">
          <mxGeometry x="377" y="415" width="60" height="30" as="geometry" />
        </mxCell>
        <mxCell id="TMLQuUg_ZA5LObD_rTEB-143" value="S" style="text;html=1;strokeColor=none;fillColor=none;align=center;verticalAlign=middle;whiteSpace=wrap;rounded=0;" vertex="1" parent="TMLQuUg_ZA5LObD_rTEB-1">
          <mxGeometry x="365" y="415" width="60" height="30" as="geometry" />
        </mxCell>
        <mxCell id="TMLQuUg_ZA5LObD_rTEB-144" value="S" style="text;html=1;strokeColor=none;fillColor=none;align=center;verticalAlign=middle;whiteSpace=wrap;rounded=0;" vertex="1" parent="TMLQuUg_ZA5LObD_rTEB-1">
          <mxGeometry x="365" y="335" width="60" height="30" as="geometry" />
        </mxCell>
        <mxCell id="TMLQuUg_ZA5LObD_rTEB-145" value="S" style="text;html=1;strokeColor=none;fillColor=none;align=center;verticalAlign=middle;whiteSpace=wrap;rounded=0;" vertex="1" parent="TMLQuUg_ZA5LObD_rTEB-1">
          <mxGeometry x="365" y="292.5" width="60" height="30" as="geometry" />
        </mxCell>
        <mxCell id="TMLQuUg_ZA5LObD_rTEB-146" value="S" style="text;html=1;strokeColor=none;fillColor=none;align=center;verticalAlign=middle;whiteSpace=wrap;rounded=0;" vertex="1" parent="TMLQuUg_ZA5LObD_rTEB-1">
          <mxGeometry x="365" y="253" width="60" height="30" as="geometry" />
        </mxCell>
        <mxCell id="TMLQuUg_ZA5LObD_rTEB-147" value="M" style="text;html=1;strokeColor=none;fillColor=none;align=center;verticalAlign=middle;whiteSpace=wrap;rounded=0;" vertex="1" parent="TMLQuUg_ZA5LObD_rTEB-1">
          <mxGeometry x="377" y="335" width="60" height="30" as="geometry" />
        </mxCell>
        <mxCell id="TMLQuUg_ZA5LObD_rTEB-148" value="M" style="text;html=1;strokeColor=none;fillColor=none;align=center;verticalAlign=middle;whiteSpace=wrap;rounded=0;" vertex="1" parent="TMLQuUg_ZA5LObD_rTEB-1">
          <mxGeometry x="425" y="312" width="60" height="30" as="geometry" />
        </mxCell>
        <mxCell id="TMLQuUg_ZA5LObD_rTEB-149" value="M" style="text;html=1;strokeColor=none;fillColor=none;align=center;verticalAlign=middle;whiteSpace=wrap;rounded=0;" vertex="1" parent="TMLQuUg_ZA5LObD_rTEB-1">
          <mxGeometry x="455" y="312" width="60" height="30" as="geometry" />
        </mxCell>
        <mxCell id="TMLQuUg_ZA5LObD_rTEB-150" value="&lt;font color=&quot;#969696&quot;&gt;M&lt;/font&gt;" style="text;html=1;strokeColor=none;fillColor=none;align=center;verticalAlign=middle;whiteSpace=wrap;rounded=0;" vertex="1" parent="TMLQuUg_ZA5LObD_rTEB-1">
          <mxGeometry x="628" y="350" width="60" height="30" as="geometry" />
        </mxCell>
        <mxCell id="TMLQuUg_ZA5LObD_rTEB-151" value="&lt;font color=&quot;#969696&quot;&gt;S&lt;/font&gt;" style="text;html=1;strokeColor=none;fillColor=none;align=center;verticalAlign=middle;whiteSpace=wrap;rounded=0;" vertex="1" parent="TMLQuUg_ZA5LObD_rTEB-1">
          <mxGeometry x="820" y="253" width="60" height="30" as="geometry" />
        </mxCell>
        <mxCell id="TMLQuUg_ZA5LObD_rTEB-152" style="edgeStyle=orthogonalEdgeStyle;rounded=0;orthogonalLoop=1;jettySize=auto;html=1;exitX=1;exitY=0.5;exitDx=0;exitDy=0;entryX=-0.001;entryY=0.23;entryDx=0;entryDy=0;entryPerimeter=0;fillColor=#ffe6cc;strokeColor=#d79b00;" edge="1" parent="TMLQuUg_ZA5LObD_rTEB-1" source="TMLQuUg_ZA5LObD_rTEB-115" target="TMLQuUg_ZA5LObD_rTEB-112">
          <mxGeometry relative="1" as="geometry" />
        </mxCell>
        <mxCell id="TMLQuUg_ZA5LObD_rTEB-153" value="Timer&lt;br&gt;Interrupt" style="edgeLabel;html=1;align=center;verticalAlign=middle;resizable=0;points=[];" vertex="1" connectable="0" parent="TMLQuUg_ZA5LObD_rTEB-152">
          <mxGeometry x="0.1114" y="1" relative="1" as="geometry">
            <mxPoint x="41" y="6" as="offset" />
          </mxGeometry>
        </mxCell>
        <mxCell id="kgeovyQ0Oze8jUoFP0bp-1" value="External&lt;div&gt;Interrupt&lt;/div&gt;" style="edgeLabel;html=1;align=center;verticalAlign=middle;resizable=0;points=[];" vertex="1" connectable="0" parent="TMLQuUg_ZA5LObD_rTEB-1">
          <mxGeometry x="870" y="750" as="geometry" />
        </mxCell>
        <mxCell id="kgeovyQ0Oze8jUoFP0bp-4" value="&lt;font color=&quot;#969696&quot;&gt;M&lt;/font&gt;" style="text;html=1;strokeColor=none;fillColor=none;align=center;verticalAlign=middle;whiteSpace=wrap;rounded=0;" vertex="1" parent="TMLQuUg_ZA5LObD_rTEB-1">
          <mxGeometry x="626" y="408.8" width="60" height="30" as="geometry" />
        </mxCell>
        <mxCell id="kgeovyQ0Oze8jUoFP0bp-5" value="&lt;font color=&quot;#969696&quot;&gt;S&lt;/font&gt;" style="text;html=1;strokeColor=none;fillColor=none;align=center;verticalAlign=middle;whiteSpace=wrap;rounded=0;" vertex="1" parent="TMLQuUg_ZA5LObD_rTEB-1">
          <mxGeometry x="1035" y="420" width="60" height="30" as="geometry" />
        </mxCell>
        <mxCell id="kgeovyQ0Oze8jUoFP0bp-8" value="Synchronizer" style="rounded=0;whiteSpace=wrap;html=1;" vertex="1" parent="TMLQuUg_ZA5LObD_rTEB-1">
          <mxGeometry x="1110" y="554" width="83" height="20" as="geometry" />
        </mxCell>
        <mxCell id="kgeovyQ0Oze8jUoFP0bp-9" value="Synchronizer" style="rounded=0;whiteSpace=wrap;html=1;" vertex="1" parent="TMLQuUg_ZA5LObD_rTEB-1">
          <mxGeometry x="365" y="529" width="83" height="20" as="geometry" />
        </mxCell>
        <mxCell id="kgeovyQ0Oze8jUoFP0bp-10" value="Synchronizer" style="rounded=0;whiteSpace=wrap;html=1;" vertex="1" parent="TMLQuUg_ZA5LObD_rTEB-1">
          <mxGeometry x="327" y="640" width="83" height="20" as="geometry" />
        </mxCell>
      </root>
    </mxGraphModel>
  </diagram>
</mxfile>
